<svg xmlns="http://www.w3.org/2000/svg" xmlns:xlink="http://www.w3.org/1999/xlink" xmlns:lucid="lucid" width="1282" height="575"><g transform="translate(-1859 -59)" lucid:page-tab-id="0_0"><path d="M0 0h3677.73v1322.83H0z" fill="#fff"/><path d="M1880 326c0-3.3 2.7-6 6-6h528c3.3 0 6 2.7 6 6v101c0 3.3-2.7 6-6 6h-528c-3.3 0-6-2.7-6-6z" stroke="#5e5e5e" stroke-width="2" fill="#ffc374"/><path d="M1880 389.87h540" stroke="#5e5e5e" stroke-width="2" fill="none"/><use xlink:href="#a" transform="matrix(1,0,0,1,1888,328) translate(192.85864197530867 18.022222222222226)"/><use xlink:href="#b" transform="matrix(1,0,0,1,1888,328) translate(177.770987654321 44.95555555555555)"/><use xlink:href="#c" transform="matrix(1,0,0,1,1892,397.8666666666667) translate(0 17.944444444444443)"/><use xlink:href="#d" transform="matrix(1,0,0,1,1892,397.8666666666667) translate(19.1358024691358 17.944444444444443)"/><use xlink:href="#e" transform="matrix(1,0,0,1,1892,397.8666666666667) translate(205.43209876543204 17.944444444444443)"/><use xlink:href="#f" transform="matrix(1,0,0,1,1892,397.8666666666667) translate(332.83950617283944 17.944444444444443)"/><path d="M2580 86c0-3.3 2.7-6 6-6h528c3.3 0 6 2.7 6 6v101c0 3.3-2.7 6-6 6h-528c-3.3 0-6-2.7-6-6z" stroke="#5e5e5e" stroke-width="2" fill="#ffc374"/><path d="M2580 122.93h540" stroke="#5e5e5e" stroke-width="2" fill="none"/><use xlink:href="#g" transform="matrix(1,0,0,1,2588,88) translate(120.0700617283951 17.988888888888887)"/><use xlink:href="#c" transform="matrix(1,0,0,1,2592,130.93333333333334) translate(0 31.444444444444443)"/><use xlink:href="#d" transform="matrix(1,0,0,1,2592,130.93333333333334) translate(19.1358024691358 31.444444444444443)"/><use xlink:href="#e" transform="matrix(1,0,0,1,2592,130.93333333333334) translate(205.43209876543204 31.444444444444443)"/><use xlink:href="#f" transform="matrix(1,0,0,1,2592,130.93333333333334) translate(332.83950617283944 31.444444444444443)"/><path d="M2580 226c0-3.3 2.7-6 6-6h528c3.3 0 6 2.7 6 6v101c0 3.3-2.7 6-6 6h-528c-3.3 0-6-2.7-6-6z" stroke="#5e5e5e" stroke-width="2" fill="#ffc374"/><path d="M2580 262.93h540" stroke="#5e5e5e" stroke-width="2" fill="none"/><use xlink:href="#h" transform="matrix(1,0,0,1,2588,228) translate(102.2080246913581 17.988888888888887)"/><use xlink:href="#c" transform="matrix(1,0,0,1,2592,270.93333333333334) translate(0 31.444444444444443)"/><use xlink:href="#d" transform="matrix(1,0,0,1,2592,270.93333333333334) translate(19.1358024691358 31.444444444444443)"/><use xlink:href="#e" transform="matrix(1,0,0,1,2592,270.93333333333334) translate(205.43209876543204 31.444444444444443)"/><use xlink:href="#f" transform="matrix(1,0,0,1,2592,270.93333333333334) translate(332.83950617283944 31.444444444444443)"/><path d="M2580 366c0-3.3 2.7-6 6-6h528c3.3 0 6 2.7 6 6v101c0 3.3-2.7 6-6 6h-528c-3.3 0-6-2.7-6-6z" stroke="#5e5e5e" stroke-width="2" fill="#ffc374"/><path d="M2580 402.93h540" stroke="#5e5e5e" stroke-width="2" fill="none"/><use xlink:href="#i" transform="matrix(1,0,0,1,2588,368) translate(43.3225308641976 17.988888888888887)"/><use xlink:href="#c" transform="matrix(1,0,0,1,2592,410.93333333333334) translate(0 31.444444444444443)"/><use xlink:href="#d" transform="matrix(1,0,0,1,2592,410.93333333333334) translate(19.1358024691358 31.444444444444443)"/><use xlink:href="#e" transform="matrix(1,0,0,1,2592,410.93333333333334) translate(205.43209876543204 31.444444444444443)"/><use xlink:href="#f" transform="matrix(1,0,0,1,2592,410.93333333333334) translate(332.83950617283944 31.444444444444443)"/><path d="M2580 506c0-3.3 2.7-6 6-6h528c3.3 0 6 2.7 6 6v101c0 3.3-2.7 6-6 6h-528c-3.3 0-6-2.7-6-6z" stroke="#5e5e5e" stroke-width="2" fill="#ffc374"/><path d="M2580 542.93h540" stroke="#5e5e5e" stroke-width="2" fill="none"/><use xlink:href="#j" transform="matrix(1,0,0,1,2588,508) translate(72.56265432098772 17.988888888888887)"/><use xlink:href="#c" transform="matrix(1,0,0,1,2592,550.9333333333333) translate(0 31.444444444444443)"/><use xlink:href="#d" transform="matrix(1,0,0,1,2592,550.9333333333333) translate(19.1358024691358 31.444444444444443)"/><use xlink:href="#e" transform="matrix(1,0,0,1,2592,550.9333333333333) translate(205.43209876543204 31.444444444444443)"/><use xlink:href="#f" transform="matrix(1,0,0,1,2592,550.9333333333333) translate(332.83950617283944 31.444444444444443)"/><path d="M2578 136.5h-12m-12 0h-24m-12 0h-12l-3.03.82-2.15 2.15-.82 3.03v9.5m0 9.5v19m0 9.5v19m0 9.5v19m0 9.5v19m0 9.5v19m0 9.5v19m0 9.5v19m0 9.5v9.5l-.82 3.03-2.15 2.15-3.03.82h-9.08m-9.1 0h-18.15m-9.1 0h-9.07" stroke="#333" stroke-width="2" fill="none"/><path d="M2579 137.5h-1.03v-2h1.03" fill="#333"/><path d="M2424.24 376.5l14.26-4.64v9.28z" stroke="#333" stroke-width="2" fill="#333"/><path d="M2578 276.5h-12m-12 0h-24m-12 0h-12l-3.03.82-2.15 2.15-.82 3.03v9.78m0 9.78v19.55m0 9.8v19.54m0 9.78v9.78l-.82 3.03-2.15 2.15-3.03.82h-9.08m-9.1 0h-18.15m-9.1 0h-9.07" stroke="#333" stroke-width="2" fill="none"/><path d="M2579 277.5h-1.03v-2h1.03" fill="#333"/><path d="M2424.24 376.5l14.26-4.64v9.28z" stroke="#333" stroke-width="2" fill="#333"/><path d="M2578 416.5h-12m-12 0h-24m-12 0h-12l-3.03-.82-2.15-2.15-.82-3.03v-9.33m0-9.34v-9.33l-.82-3.03-2.15-2.15-3.03-.82h-9.08m-9.1 0h-18.15m-9.1 0h-9.07" stroke="#333" stroke-width="2" fill="none"/><path d="M2579 417.5h-1.03v-2h1.03" fill="#333"/><path d="M2424.24 376.5l14.26-4.64v9.28z" stroke="#333" stroke-width="2" fill="#333"/><path d="M2578 556.5h-12m-12 0h-24m-12 0h-12l-3.03-.82-2.15-2.15-.82-3.03v-9.33m0-9.34v-18.66m0-9.34v-18.66m0-9.34v-18.66m0-9.34v-18.66m0-9.34v-18.66m0-9.34v-9.33l-.82-3.03-2.15-2.15-3.03-.82h-9.08m-9.1 0h-18.15m-9.1 0h-9.07" stroke="#333" stroke-width="2" fill="none"/><path d="M2579 557.5h-1.03v-2h1.03" fill="#333"/><path d="M2424.24 376.5l14.26-4.64v9.28z" stroke="#333" stroke-width="2" fill="#333"/><path d="M1880 506c0-3.3 2.7-6 6-6h528c3.3 0 6 2.7 6 6v101c0 3.3-2.7 6-6 6h-528c-3.3 0-6-2.7-6-6z" stroke="#5e5e5e" stroke-width="2" fill="#ffc374"/><path d="M1880 569.87h540" stroke="#5e5e5e" stroke-width="2" fill="none"/><g><use xlink:href="#a" transform="matrix(1,0,0,1,1888,508) translate(192.85864197530867 18.022222222222226)"/><use xlink:href="#k" transform="matrix(1,0,0,1,1888,508) translate(137.2774691358025 44.95555555555555)"/></g><g><use xlink:href="#c" transform="matrix(1,0,0,1,1892,577.8666666666667) translate(0 17.944444444444443)"/><use xlink:href="#d" transform="matrix(1,0,0,1,1892,577.8666666666667) translate(19.1358024691358 17.944444444444443)"/><use xlink:href="#l" transform="matrix(1,0,0,1,1892,577.8666666666667) translate(205.43209876543204 17.944444444444443)"/><use xlink:href="#m" transform="matrix(1,0,0,1,1892,577.8666666666667) translate(340.1851851851851 17.944444444444443)"/></g><path d="M2150 498v-45.5" stroke="#333" stroke-width="2" fill="none"/><path d="M2151 499h-2v-1.03h2" fill="#333"/><path d="M2150 437.24l4.64 14.26h-9.28z" stroke="#333" stroke-width="2" fill="#333"/><defs><path fill="#333" d="M18-100v-36l175-74v27L42-118l151 64v27" id="n"/><path fill="#333" d="M24-231v-30h32v30H24zM24 0v-190h32V0H24" id="o"/><path fill="#333" d="M117-194c89-4 53 116 60 194h-32v-121c0-31-8-49-39-48C34-167 62-67 57 0H25l-1-190h30c1 10-1 24 2 32 11-22 29-35 61-36" id="p"/><path fill="#333" d="M59-47c-2 24 18 29 38 22v24C64 9 27 4 27-40v-127H5v-23h24l9-43h21v43h35v23H59v120" id="q"/><path fill="#333" d="M100-194c63 0 86 42 84 106H49c0 40 14 67 53 68 26 1 43-12 49-29l28 8c-11 28-37 45-77 45C44 4 14-33 15-96c1-61 26-98 85-98zm52 81c6-60-76-77-97-28-3 7-6 17-6 28h103" id="r"/><path fill="#333" d="M114-163C36-179 61-72 57 0H25l-1-190h30c1 12-1 29 2 39 6-27 23-49 58-41v29" id="s"/><path fill="#333" d="M101-234c-31-9-42 10-38 44h38v23H63V0H32v-167H5v-23h27c-7-52 17-82 69-68v24" id="t"/><path fill="#333" d="M141-36C126-15 110 5 73 4 37 3 15-17 15-53c-1-64 63-63 125-63 3-35-9-54-41-54-24 1-41 7-42 31l-33-3c5-37 33-52 76-52 45 0 72 20 72 64v82c-1 20 7 32 28 27v20c-31 9-61-2-59-35zM48-53c0 20 12 33 32 33 41-3 63-29 60-74-43 2-92-5-92 41" id="u"/><path fill="#333" d="M96-169c-40 0-48 33-48 73s9 75 48 75c24 0 41-14 43-38l32 2c-6 37-31 61-74 61-59 0-76-41-82-99-10-93 101-131 147-64 4 7 5 14 7 22l-32 3c-4-21-16-35-41-35" id="v"/><path fill="#333" d="M18-27v-27l151-64-151-65v-27l175 74v36" id="w"/><g id="a"><use transform="matrix(0.06234567901234565,0,0,0.06234567901234565,0,0)" xlink:href="#n"/><use transform="matrix(0.06234567901234565,0,0,0.06234567901234565,13.092592592592586,0)" xlink:href="#n"/><use transform="matrix(0.06234567901234565,0,0,0.06234567901234565,26.185185185185173,0)" xlink:href="#o"/><use transform="matrix(0.06234567901234565,0,0,0.06234567901234565,31.11049382716048,0)" xlink:href="#p"/><use transform="matrix(0.06234567901234565,0,0,0.06234567901234565,43.57962962962961,0)" xlink:href="#q"/><use transform="matrix(0.06234567901234565,0,0,0.06234567901234565,49.81419753086417,0)" xlink:href="#r"/><use transform="matrix(0.06234567901234565,0,0,0.06234567901234565,62.2833333333333,0)" xlink:href="#s"/><use transform="matrix(0.06234567901234565,0,0,0.06234567901234565,69.70246913580243,0)" xlink:href="#t"/><use transform="matrix(0.06234567901234565,0,0,0.06234567901234565,75.937037037037,0)" xlink:href="#u"/><use transform="matrix(0.06234567901234565,0,0,0.06234567901234565,88.40617283950613,0)" xlink:href="#v"/><use transform="matrix(0.06234567901234565,0,0,0.06234567901234565,99.62839506172834,0)" xlink:href="#r"/><use transform="matrix(0.06234567901234565,0,0,0.06234567901234565,112.09753086419747,0)" xlink:href="#w"/><use transform="matrix(0.06234567901234565,0,0,0.06234567901234565,125.19012345679005,0)" xlink:href="#w"/></g><path fill="#333" d="M33 0v-248h34V0H33" id="x"/><path fill="#333" d="M127-220V0H93v-220H8v-28h204v28h-85" id="y"/><path fill="#333" d="M135-143c-3-34-86-38-87 0 15 53 115 12 119 90S17 21 10-45l28-5c4 36 97 45 98 0-10-56-113-15-118-90-4-57 82-63 122-42 12 7 21 19 24 35" id="z"/><path fill="#333" d="M100-194c62-1 85 37 85 99 1 63-27 99-86 99S16-35 15-95c0-66 28-99 85-99zM99-20c44 1 53-31 53-75 0-43-8-75-51-75s-53 32-53 75 10 74 51 75" id="A"/><path fill="#333" d="M233-177c-1 41-23 64-60 70L243 0h-38l-65-103H63V0H30v-248c88 3 205-21 203 71zM63-129c60-2 137 13 137-47 0-61-80-42-137-45v92" id="B"/><path fill="#333" d="M84 4C-5 8 30-112 23-190h32v120c0 31 7 50 39 49 72-2 45-101 50-169h31l1 190h-30c-1-10 1-25-2-33-11 22-28 36-60 37" id="C"/><path fill="#333" d="M24 0v-261h32V0H24" id="D"/><g id="b"><use transform="matrix(0.06234567901234565,0,0,0.06234567901234565,0,0)" xlink:href="#x"/><use transform="matrix(0.06234567901234565,0,0,0.06234567901234565,6.234567901234565,0)" xlink:href="#y"/><use transform="matrix(0.06234567901234565,0,0,0.06234567901234565,19.07777777777777,0)" xlink:href="#s"/><use transform="matrix(0.06234567901234565,0,0,0.06234567901234565,26.4969135802469,0)" xlink:href="#u"/><use transform="matrix(0.06234567901234565,0,0,0.06234567901234565,38.96604938271603,0)" xlink:href="#p"/><use transform="matrix(0.06234567901234565,0,0,0.06234567901234565,51.43518518518516,0)" xlink:href="#z"/><use transform="matrix(0.06234567901234565,0,0,0.06234567901234565,62.657407407407376,0)" xlink:href="#u"/><use transform="matrix(0.06234567901234565,0,0,0.06234567901234565,75.1265432098765,0)" xlink:href="#v"/><use transform="matrix(0.06234567901234565,0,0,0.06234567901234565,86.34876543209872,0)" xlink:href="#q"/><use transform="matrix(0.06234567901234565,0,0,0.06234567901234565,92.58333333333329,0)" xlink:href="#o"/><use transform="matrix(0.06234567901234565,0,0,0.06234567901234565,97.50864197530859,0)" xlink:href="#A"/><use transform="matrix(0.06234567901234565,0,0,0.06234567901234565,109.97777777777772,0)" xlink:href="#p"/><use transform="matrix(0.06234567901234565,0,0,0.06234567901234565,122.44691358024684,0)" xlink:href="#B"/><use transform="matrix(0.06234567901234565,0,0,0.06234567901234565,138.59444444444438,0)" xlink:href="#C"/><use transform="matrix(0.06234567901234565,0,0,0.06234567901234565,151.06358024691352,0)" xlink:href="#D"/><use transform="matrix(0.06234567901234565,0,0,0.06234567901234565,155.98888888888882,0)" xlink:href="#r"/></g><path fill="#333" d="M118-107v75H92v-75H18v-26h74v-75h26v75h74v26h-74" id="E"/><use transform="matrix(0.06172839506172839,0,0,0.06172839506172839,0,0)" xlink:href="#E" id="c"/><path fill="#333" d="M30 0v-248h187v28H63v79h144v27H63v87h162V0H30" id="F"/><path fill="#333" d="M108 0H70L1-190h34L89-25l56-165h34" id="G"/><path fill="#333" d="M87 75C49 33 22-17 22-94c0-76 28-126 65-167h31c-38 41-64 92-64 168S80 34 118 75H87" id="H"/><path fill="#333" d="M205 0l-28-72H64L36 0H1l101-248h38L239 0h-34zm-38-99l-47-123c-12 45-31 82-46 123h93" id="I"/><path fill="#333" d="M68-38c1 34 0 65-14 84H32c9-13 17-26 17-46H33v-38h35" id="J"/><g id="d"><use transform="matrix(0.06172839506172839,0,0,0.06172839506172839,0,0)" xlink:href="#F"/><use transform="matrix(0.06172839506172839,0,0,0.06172839506172839,14.814814814814813,0)" xlink:href="#G"/><use transform="matrix(0.06172839506172839,0,0,0.06172839506172839,25.925925925925924,0)" xlink:href="#u"/><use transform="matrix(0.06172839506172839,0,0,0.06172839506172839,38.2716049382716,0)" xlink:href="#D"/><use transform="matrix(0.06172839506172839,0,0,0.06172839506172839,43.148148148148145,0)" xlink:href="#C"/><use transform="matrix(0.06172839506172839,0,0,0.06172839506172839,55.49382716049382,0)" xlink:href="#u"/><use transform="matrix(0.06172839506172839,0,0,0.06172839506172839,67.8395061728395,0)" xlink:href="#q"/><use transform="matrix(0.06172839506172839,0,0,0.06172839506172839,74.01234567901234,0)" xlink:href="#r"/><use transform="matrix(0.06172839506172839,0,0,0.06172839506172839,86.35802469135803,0)" xlink:href="#H"/><use transform="matrix(0.06172839506172839,0,0,0.06172839506172839,93.70370370370371,0)" xlink:href="#I"/><use transform="matrix(0.06172839506172839,0,0,0.06172839506172839,108.51851851851852,0)" xlink:href="#v"/><use transform="matrix(0.06172839506172839,0,0,0.06172839506172839,119.62962962962963,0)" xlink:href="#v"/><use transform="matrix(0.06172839506172839,0,0,0.06172839506172839,130.74074074074073,0)" xlink:href="#A"/><use transform="matrix(0.06172839506172839,0,0,0.06172839506172839,143.0864197530864,0)" xlink:href="#C"/><use transform="matrix(0.06172839506172839,0,0,0.06172839506172839,155.43209876543207,0)" xlink:href="#p"/><use transform="matrix(0.06172839506172839,0,0,0.06172839506172839,167.77777777777774,0)" xlink:href="#q"/><use transform="matrix(0.06172839506172839,0,0,0.06172839506172839,173.95061728395058,0)" xlink:href="#J"/></g><g id="e"><use transform="matrix(0.06172839506172839,0,0,0.06172839506172839,0,0)" xlink:href="#y"/><use transform="matrix(0.06172839506172839,0,0,0.06172839506172839,12.716049382716047,0)" xlink:href="#s"/><use transform="matrix(0.06172839506172839,0,0,0.06172839506172839,20.061728395061728,0)" xlink:href="#u"/><use transform="matrix(0.06172839506172839,0,0,0.06172839506172839,32.407407407407405,0)" xlink:href="#p"/><use transform="matrix(0.06172839506172839,0,0,0.06172839506172839,44.75308641975308,0)" xlink:href="#z"/><use transform="matrix(0.06172839506172839,0,0,0.06172839506172839,55.86419753086419,0)" xlink:href="#u"/><use transform="matrix(0.06172839506172839,0,0,0.06172839506172839,68.20987654320987,0)" xlink:href="#v"/><use transform="matrix(0.06172839506172839,0,0,0.06172839506172839,79.32098765432099,0)" xlink:href="#q"/><use transform="matrix(0.06172839506172839,0,0,0.06172839506172839,85.49382716049382,0)" xlink:href="#o"/><use transform="matrix(0.06172839506172839,0,0,0.06172839506172839,90.37037037037037,0)" xlink:href="#A"/><use transform="matrix(0.06172839506172839,0,0,0.06172839506172839,102.71604938271605,0)" xlink:href="#p"/><use transform="matrix(0.06172839506172839,0,0,0.06172839506172839,115.06172839506173,0)" xlink:href="#J"/></g><path fill="#333" d="M140-251c81 0 123 46 123 126C263-46 219 4 140 4 59 4 17-45 17-125s42-126 123-126zm0 227c63 0 89-41 89-101s-29-99-89-99c-61 0-89 39-89 99S79-25 140-24" id="K"/><path fill="#333" d="M115-194c55 1 70 41 70 98S169 2 115 4C84 4 66-9 55-30l1 105H24l-1-265h31l2 30c10-21 28-34 59-34zm-8 174c40 0 45-34 45-75s-6-73-45-74c-42 0-51 32-51 76 0 43 10 73 51 73" id="L"/><path fill="#333" d="M33-261c38 41 65 92 65 168S71 34 33 75H2C39 34 66-17 66-93S39-220 2-261h31" id="M"/><g id="f"><use transform="matrix(0.06172839506172839,0,0,0.06172839506172839,0,0)" xlink:href="#K"/><use transform="matrix(0.06172839506172839,0,0,0.06172839506172839,17.28395061728395,0)" xlink:href="#L"/><use transform="matrix(0.06172839506172839,0,0,0.06172839506172839,29.629629629629626,0)" xlink:href="#r"/><use transform="matrix(0.06172839506172839,0,0,0.06172839506172839,41.9753086419753,0)" xlink:href="#s"/><use transform="matrix(0.06172839506172839,0,0,0.06172839506172839,49.32098765432098,0)" xlink:href="#u"/><use transform="matrix(0.06172839506172839,0,0,0.06172839506172839,61.66666666666666,0)" xlink:href="#q"/><use transform="matrix(0.06172839506172839,0,0,0.06172839506172839,67.83950617283949,0)" xlink:href="#o"/><use transform="matrix(0.06172839506172839,0,0,0.06172839506172839,72.71604938271604,0)" xlink:href="#A"/><use transform="matrix(0.06172839506172839,0,0,0.06172839506172839,85.06172839506172,0)" xlink:href="#p"/><use transform="matrix(0.06172839506172839,0,0,0.06172839506172839,97.4074074074074,0)" xlink:href="#B"/><use transform="matrix(0.06172839506172839,0,0,0.06172839506172839,113.39506172839506,0)" xlink:href="#r"/><use transform="matrix(0.06172839506172839,0,0,0.06172839506172839,125.74074074074075,0)" xlink:href="#z"/><use transform="matrix(0.06172839506172839,0,0,0.06172839506172839,136.85185185185185,0)" xlink:href="#C"/><use transform="matrix(0.06172839506172839,0,0,0.06172839506172839,149.19753086419752,0)" xlink:href="#D"/><use transform="matrix(0.06172839506172839,0,0,0.06172839506172839,154.07407407407405,0)" xlink:href="#q"/><use transform="matrix(0.06172839506172839,0,0,0.06172839506172839,160.24691358024688,0)" xlink:href="#M"/></g><path fill="#333" d="M240 0l2-218c-23 76-54 145-80 218h-23L58-218 59 0H30v-248h44l77 211c21-75 51-140 76-211h43V0h-30" id="N"/><path fill="#333" d="M197 0v-115H63V0H30v-248h33v105h134v-105h34V0h-34" id="O"/><path fill="#333" d="M212-179c-10-28-35-45-73-45-59 0-87 40-87 99 0 60 29 101 89 101 43 0 62-24 78-52l27 14C228-24 195 4 139 4 59 4 22-46 18-125c-6-104 99-153 187-111 19 9 31 26 39 46" id="P"/><path fill="#333" d="M85-194c31 0 48 13 60 33l-1-100h32l1 261h-30c-2-10 0-23-3-31C134-8 116 4 85 4 32 4 16-35 15-94c0-66 23-100 70-100zm9 24c-40 0-46 34-46 75 0 40 6 74 45 74 42 0 51-32 51-76 0-42-9-74-50-73" id="Q"/><g id="g"><use transform="matrix(0.06234567901234565,0,0,0.06234567901234565,0,0)" xlink:href="#N"/><use transform="matrix(0.06234567901234565,0,0,0.06234567901234565,18.64135802469135,0)" xlink:href="#C"/><use transform="matrix(0.06234567901234565,0,0,0.06234567901234565,31.110493827160482,0)" xlink:href="#z"/><use transform="matrix(0.06234567901234565,0,0,0.06234567901234565,42.3327160493827,0)" xlink:href="#q"/><use transform="matrix(0.06234567901234565,0,0,0.06234567901234565,48.56728395061726,0)" xlink:href="#O"/><use transform="matrix(0.06234567901234565,0,0,0.06234567901234565,64.71481481481479,0)" xlink:href="#u"/><use transform="matrix(0.06234567901234565,0,0,0.06234567901234565,77.18395061728391,0)" xlink:href="#G"/><use transform="matrix(0.06234567901234565,0,0,0.06234567901234565,88.40617283950613,0)" xlink:href="#r"/><use transform="matrix(0.06234567901234565,0,0,0.06234567901234565,100.87530864197525,0)" xlink:href="#I"/><use transform="matrix(0.06234567901234565,0,0,0.06234567901234565,115.83827160493821,0)" xlink:href="#p"/><use transform="matrix(0.06234567901234565,0,0,0.06234567901234565,128.30740740740734,0)" xlink:href="#I"/><use transform="matrix(0.06234567901234565,0,0,0.06234567901234565,143.2703703703703,0)" xlink:href="#v"/><use transform="matrix(0.06234567901234565,0,0,0.06234567901234565,154.49259259259253,0)" xlink:href="#q"/><use transform="matrix(0.06234567901234565,0,0,0.06234567901234565,160.72716049382709,0)" xlink:href="#o"/><use transform="matrix(0.06234567901234565,0,0,0.06234567901234565,165.6524691358024,0)" xlink:href="#G"/><use transform="matrix(0.06234567901234565,0,0,0.06234567901234565,176.87469135802462,0)" xlink:href="#r"/><use transform="matrix(0.06234567901234565,0,0,0.06234567901234565,189.34382716049376,0)" xlink:href="#P"/><use transform="matrix(0.06234567901234565,0,0,0.06234567901234565,205.4913580246913,0)" xlink:href="#u"/><use transform="matrix(0.06234567901234565,0,0,0.06234567901234565,217.96049382716043,0)" xlink:href="#s"/><use transform="matrix(0.06234567901234565,0,0,0.06234567901234565,225.37962962962956,0)" xlink:href="#Q"/><use transform="matrix(0.06234567901234565,0,0,0.06234567901234565,237.8487654320987,0)" xlink:href="#B"/><use transform="matrix(0.06234567901234565,0,0,0.06234567901234565,253.99629629629624,0)" xlink:href="#C"/><use transform="matrix(0.06234567901234565,0,0,0.06234567901234565,266.46543209876535,0)" xlink:href="#D"/><use transform="matrix(0.06234567901234565,0,0,0.06234567901234565,271.3907407407407,0)" xlink:href="#r"/></g><path fill="#333" d="M185-189c-5-48-123-54-124 2 14 75 158 14 163 119 3 78-121 87-175 55-17-10-28-26-33-46l33-7c5 56 141 63 141-1 0-78-155-14-162-118-5-82 145-84 179-34 5 7 8 16 11 25" id="R"/><path fill="#333" d="M160-131c35 5 61 23 61 61C221 17 115-2 30 0v-248c76 3 177-17 177 60 0 33-19 50-47 57zm-97-11c50-1 110 9 110-42 0-47-63-36-110-37v79zm0 115c55-2 124 14 124-45 0-56-70-42-124-44v89" id="S"/><g id="h"><use transform="matrix(0.06234567901234565,0,0,0.06234567901234565,0,0)" xlink:href="#N"/><use transform="matrix(0.06234567901234565,0,0,0.06234567901234565,18.64135802469135,0)" xlink:href="#C"/><use transform="matrix(0.06234567901234565,0,0,0.06234567901234565,31.110493827160482,0)" xlink:href="#z"/><use transform="matrix(0.06234567901234565,0,0,0.06234567901234565,42.3327160493827,0)" xlink:href="#q"/><use transform="matrix(0.06234567901234565,0,0,0.06234567901234565,48.56728395061726,0)" xlink:href="#O"/><use transform="matrix(0.06234567901234565,0,0,0.06234567901234565,64.71481481481479,0)" xlink:href="#u"/><use transform="matrix(0.06234567901234565,0,0,0.06234567901234565,77.18395061728391,0)" xlink:href="#G"/><use transform="matrix(0.06234567901234565,0,0,0.06234567901234565,88.40617283950613,0)" xlink:href="#r"/><use transform="matrix(0.06234567901234565,0,0,0.06234567901234565,100.87530864197525,0)" xlink:href="#R"/><use transform="matrix(0.06234567901234565,0,0,0.06234567901234565,115.83827160493821,0)" xlink:href="#C"/><use transform="matrix(0.06234567901234565,0,0,0.06234567901234565,128.30740740740734,0)" xlink:href="#t"/><use transform="matrix(0.06234567901234565,0,0,0.06234567901234565,134.10555555555547,0)" xlink:href="#t"/><use transform="matrix(0.06234567901234565,0,0,0.06234567901234565,140.34012345679002,0)" xlink:href="#o"/><use transform="matrix(0.06234567901234565,0,0,0.06234567901234565,145.26543209876533,0)" xlink:href="#v"/><use transform="matrix(0.06234567901234565,0,0,0.06234567901234565,156.48765432098756,0)" xlink:href="#o"/><use transform="matrix(0.06234567901234565,0,0,0.06234567901234565,161.41296296296287,0)" xlink:href="#r"/><use transform="matrix(0.06234567901234565,0,0,0.06234567901234565,173.882098765432,0)" xlink:href="#p"/><use transform="matrix(0.06234567901234565,0,0,0.06234567901234565,186.35123456790114,0)" xlink:href="#q"/><use transform="matrix(0.06234567901234565,0,0,0.06234567901234565,192.5858024691357,0)" xlink:href="#S"/><use transform="matrix(0.06234567901234565,0,0,0.06234567901234565,207.54876543209866,0)" xlink:href="#u"/><use transform="matrix(0.06234567901234565,0,0,0.06234567901234565,220.0179012345678,0)" xlink:href="#D"/><use transform="matrix(0.06234567901234565,0,0,0.06234567901234565,224.9432098765431,0)" xlink:href="#u"/><use transform="matrix(0.06234567901234565,0,0,0.06234567901234565,237.41234567901225,0)" xlink:href="#p"/><use transform="matrix(0.06234567901234565,0,0,0.06234567901234565,249.8814814814814,0)" xlink:href="#v"/><use transform="matrix(0.06234567901234565,0,0,0.06234567901234565,261.1037037037036,0)" xlink:href="#r"/><use transform="matrix(0.06234567901234565,0,0,0.06234567901234565,273.5728395061727,0)" xlink:href="#B"/><use transform="matrix(0.06234567901234565,0,0,0.06234567901234565,289.72037037037023,0)" xlink:href="#C"/><use transform="matrix(0.06234567901234565,0,0,0.06234567901234565,302.18950617283934,0)" xlink:href="#D"/><use transform="matrix(0.06234567901234565,0,0,0.06234567901234565,307.1148148148147,0)" xlink:href="#r"/></g><path fill="#333" d="M177-190C167-65 218 103 67 71c-23-6-38-20-44-43l32-5c15 47 100 32 89-28v-30C133-14 115 1 83 1 29 1 15-40 15-95c0-56 16-97 71-98 29-1 48 16 59 35 1-10 0-23 2-32h30zM94-22c36 0 50-32 50-73 0-42-14-75-50-75-39 0-46 34-46 75s6 73 46 73" id="T"/><path fill="#333" d="M106-169C34-169 62-67 57 0H25v-261h32l-1 103c12-21 28-36 61-36 89 0 53 116 60 194h-32v-121c2-32-8-49-39-48" id="U"/><path fill="#333" d="M30 0v-248h33v221h125V0H30" id="V"/><path fill="#333" d="M210-169c-67 3-38 105-44 169h-31v-121c0-29-5-50-35-48C34-165 62-65 56 0H25l-1-190h30c1 10-1 24 2 32 10-44 99-50 107 0 11-21 27-35 58-36 85-2 47 119 55 194h-31v-121c0-29-5-49-35-48" id="W"/><g id="i"><use transform="matrix(0.06234567901234565,0,0,0.06234567901234565,0,0)" xlink:href="#N"/><use transform="matrix(0.06234567901234565,0,0,0.06234567901234565,18.64135802469135,0)" xlink:href="#C"/><use transform="matrix(0.06234567901234565,0,0,0.06234567901234565,31.110493827160482,0)" xlink:href="#z"/><use transform="matrix(0.06234567901234565,0,0,0.06234567901234565,42.3327160493827,0)" xlink:href="#q"/><use transform="matrix(0.06234567901234565,0,0,0.06234567901234565,48.56728395061726,0)" xlink:href="#B"/><use transform="matrix(0.06234567901234565,0,0,0.06234567901234565,64.71481481481479,0)" xlink:href="#r"/><use transform="matrix(0.06234567901234565,0,0,0.06234567901234565,77.18395061728391,0)" xlink:href="#z"/><use transform="matrix(0.06234567901234565,0,0,0.06234567901234565,88.40617283950613,0)" xlink:href="#L"/><use transform="matrix(0.06234567901234565,0,0,0.06234567901234565,100.87530864197525,0)" xlink:href="#r"/><use transform="matrix(0.06234567901234565,0,0,0.06234567901234565,113.34444444444438,0)" xlink:href="#v"/><use transform="matrix(0.06234567901234565,0,0,0.06234567901234565,124.56666666666659,0)" xlink:href="#q"/><use transform="matrix(0.06234567901234565,0,0,0.06234567901234565,130.80123456790116,0)" xlink:href="#K"/><use transform="matrix(0.06234567901234565,0,0,0.06234567901234565,148.25802469135795,0)" xlink:href="#G"/><use transform="matrix(0.06234567901234565,0,0,0.06234567901234565,159.48024691358017,0)" xlink:href="#r"/><use transform="matrix(0.06234567901234565,0,0,0.06234567901234565,171.9493827160493,0)" xlink:href="#s"/><use transform="matrix(0.06234567901234565,0,0,0.06234567901234565,179.36851851851844,0)" xlink:href="#p"/><use transform="matrix(0.06234567901234565,0,0,0.06234567901234565,191.83765432098758,0)" xlink:href="#o"/><use transform="matrix(0.06234567901234565,0,0,0.06234567901234565,196.7629629629629,0)" xlink:href="#T"/><use transform="matrix(0.06234567901234565,0,0,0.06234567901234565,209.23209876543203,0)" xlink:href="#U"/><use transform="matrix(0.06234567901234565,0,0,0.06234567901234565,221.70123456790117,0)" xlink:href="#q"/><use transform="matrix(0.06234567901234565,0,0,0.06234567901234565,227.93580246913572,0)" xlink:href="#y"/><use transform="matrix(0.06234567901234565,0,0,0.06234567901234565,240.77901234567895,0)" xlink:href="#s"/><use transform="matrix(0.06234567901234565,0,0,0.06234567901234565,248.19814814814808,0)" xlink:href="#u"/><use transform="matrix(0.06234567901234565,0,0,0.06234567901234565,260.6672839506172,0)" xlink:href="#p"/><use transform="matrix(0.06234567901234565,0,0,0.06234567901234565,273.13641975308633,0)" xlink:href="#z"/><use transform="matrix(0.06234567901234565,0,0,0.06234567901234565,284.35864197530856,0)" xlink:href="#u"/><use transform="matrix(0.06234567901234565,0,0,0.06234567901234565,296.82777777777767,0)" xlink:href="#v"/><use transform="matrix(0.06234567901234565,0,0,0.06234567901234565,308.0499999999999,0)" xlink:href="#q"/><use transform="matrix(0.06234567901234565,0,0,0.06234567901234565,314.2845679012345,0)" xlink:href="#o"/><use transform="matrix(0.06234567901234565,0,0,0.06234567901234565,319.2098765432098,0)" xlink:href="#A"/><use transform="matrix(0.06234567901234565,0,0,0.06234567901234565,331.6790123456789,0)" xlink:href="#p"/><use transform="matrix(0.06234567901234565,0,0,0.06234567901234565,344.14814814814804,0)" xlink:href="#V"/><use transform="matrix(0.06234567901234565,0,0,0.06234567901234565,356.61728395061715,0)" xlink:href="#o"/><use transform="matrix(0.06234567901234565,0,0,0.06234567901234565,361.5425925925925,0)" xlink:href="#W"/><use transform="matrix(0.06234567901234565,0,0,0.06234567901234565,380.1839506172838,0)" xlink:href="#o"/><use transform="matrix(0.06234567901234565,0,0,0.06234567901234565,385.10925925925915,0)" xlink:href="#q"/><use transform="matrix(0.06234567901234565,0,0,0.06234567901234565,391.34382716049373,0)" xlink:href="#B"/><use transform="matrix(0.06234567901234565,0,0,0.06234567901234565,407.49135802469124,0)" xlink:href="#C"/><use transform="matrix(0.06234567901234565,0,0,0.06234567901234565,419.96049382716035,0)" xlink:href="#D"/><use transform="matrix(0.06234567901234565,0,0,0.06234567901234565,424.8858024691357,0)" xlink:href="#r"/></g><path fill="#333" d="M190 0L58-211 59 0H30v-248h39L202-35l-2-213h31V0h-41" id="X"/><path fill="#333" d="M30-248c118-7 216 8 213 122C240-48 200 0 122 0H30v-248zM63-27c89 8 146-16 146-99s-60-101-146-95v194" id="Y"/><g id="j"><use transform="matrix(0.06234567901234565,0,0,0.06234567901234565,0,0)" xlink:href="#y"/><use transform="matrix(0.06234567901234565,0,0,0.06234567901234565,12.843209876543204,0)" xlink:href="#s"/><use transform="matrix(0.06234567901234565,0,0,0.06234567901234565,20.262345679012338,0)" xlink:href="#u"/><use transform="matrix(0.06234567901234565,0,0,0.06234567901234565,32.73148148148147,0)" xlink:href="#p"/><use transform="matrix(0.06234567901234565,0,0,0.06234567901234565,45.2006172839506,0)" xlink:href="#z"/><use transform="matrix(0.06234567901234565,0,0,0.06234567901234565,56.42283950617282,0)" xlink:href="#u"/><use transform="matrix(0.06234567901234565,0,0,0.06234567901234565,68.89197530864195,0)" xlink:href="#v"/><use transform="matrix(0.06234567901234565,0,0,0.06234567901234565,80.11419753086416,0)" xlink:href="#q"/><use transform="matrix(0.06234567901234565,0,0,0.06234567901234565,86.34876543209873,0)" xlink:href="#o"/><use transform="matrix(0.06234567901234565,0,0,0.06234567901234565,91.27407407407404,0)" xlink:href="#A"/><use transform="matrix(0.06234567901234565,0,0,0.06234567901234565,103.74320987654316,0)" xlink:href="#p"/><use transform="matrix(0.06234567901234565,0,0,0.06234567901234565,116.21234567901229,0)" xlink:href="#N"/><use transform="matrix(0.06234567901234565,0,0,0.06234567901234565,134.85370370370364,0)" xlink:href="#C"/><use transform="matrix(0.06234567901234565,0,0,0.06234567901234565,147.32283950617278,0)" xlink:href="#z"/><use transform="matrix(0.06234567901234565,0,0,0.06234567901234565,158.545061728395,0)" xlink:href="#q"/><use transform="matrix(0.06234567901234565,0,0,0.06234567901234565,164.77962962962957,0)" xlink:href="#X"/><use transform="matrix(0.06234567901234565,0,0,0.06234567901234565,180.9271604938271,0)" xlink:href="#A"/><use transform="matrix(0.06234567901234565,0,0,0.06234567901234565,193.39629629629624,0)" xlink:href="#q"/><use transform="matrix(0.06234567901234565,0,0,0.06234567901234565,199.6308641975308,0)" xlink:href="#S"/><use transform="matrix(0.06234567901234565,0,0,0.06234567901234565,214.59382716049376,0)" xlink:href="#r"/><use transform="matrix(0.06234567901234565,0,0,0.06234567901234565,227.0629629629629,0)" xlink:href="#Y"/><use transform="matrix(0.06234567901234565,0,0,0.06234567901234565,243.21049382716043,0)" xlink:href="#C"/><use transform="matrix(0.06234567901234565,0,0,0.06234567901234565,255.67962962962957,0)" xlink:href="#L"/><use transform="matrix(0.06234567901234565,0,0,0.06234567901234565,268.1487654320987,0)" xlink:href="#D"/><use transform="matrix(0.06234567901234565,0,0,0.06234567901234565,273.074074074074,0)" xlink:href="#o"/><use transform="matrix(0.06234567901234565,0,0,0.06234567901234565,277.99938271604935,0)" xlink:href="#v"/><use transform="matrix(0.06234567901234565,0,0,0.06234567901234565,289.2216049382716,0)" xlink:href="#u"/><use transform="matrix(0.06234567901234565,0,0,0.06234567901234565,301.6907407407407,0)" xlink:href="#q"/><use transform="matrix(0.06234567901234565,0,0,0.06234567901234565,307.9253086419753,0)" xlink:href="#r"/><use transform="matrix(0.06234567901234565,0,0,0.06234567901234565,320.3944444444444,0)" xlink:href="#Q"/><use transform="matrix(0.06234567901234565,0,0,0.06234567901234565,332.8635802469135,0)" xlink:href="#B"/><use transform="matrix(0.06234567901234565,0,0,0.06234567901234565,349.011111111111,0)" xlink:href="#C"/><use transform="matrix(0.06234567901234565,0,0,0.06234567901234565,361.4802469135801,0)" xlink:href="#D"/><use transform="matrix(0.06234567901234565,0,0,0.06234567901234565,366.40555555555545,0)" xlink:href="#r"/></g><g id="k"><use transform="matrix(0.06234567901234565,0,0,0.06234567901234565,0,0)" xlink:href="#x"/><use transform="matrix(0.06234567901234565,0,0,0.06234567901234565,6.234567901234565,0)" xlink:href="#y"/><use transform="matrix(0.06234567901234565,0,0,0.06234567901234565,19.07777777777777,0)" xlink:href="#s"/><use transform="matrix(0.06234567901234565,0,0,0.06234567901234565,26.4969135802469,0)" xlink:href="#u"/><use transform="matrix(0.06234567901234565,0,0,0.06234567901234565,38.96604938271603,0)" xlink:href="#p"/><use transform="matrix(0.06234567901234565,0,0,0.06234567901234565,51.43518518518516,0)" xlink:href="#z"/><use transform="matrix(0.06234567901234565,0,0,0.06234567901234565,62.657407407407376,0)" xlink:href="#u"/><use transform="matrix(0.06234567901234565,0,0,0.06234567901234565,75.1265432098765,0)" xlink:href="#v"/><use transform="matrix(0.06234567901234565,0,0,0.06234567901234565,86.34876543209872,0)" xlink:href="#q"/><use transform="matrix(0.06234567901234565,0,0,0.06234567901234565,92.58333333333329,0)" xlink:href="#o"/><use transform="matrix(0.06234567901234565,0,0,0.06234567901234565,97.50864197530859,0)" xlink:href="#A"/><use transform="matrix(0.06234567901234565,0,0,0.06234567901234565,109.97777777777772,0)" xlink:href="#p"/><use transform="matrix(0.06234567901234565,0,0,0.06234567901234565,122.44691358024684,0)" xlink:href="#z"/><use transform="matrix(0.06234567901234565,0,0,0.06234567901234565,133.66913580246907,0)" xlink:href="#B"/><use transform="matrix(0.06234567901234565,0,0,0.06234567901234565,149.8166666666666,0)" xlink:href="#C"/><use transform="matrix(0.06234567901234565,0,0,0.06234567901234565,162.28580246913575,0)" xlink:href="#D"/><use transform="matrix(0.06234567901234565,0,0,0.06234567901234565,167.21111111111105,0)" xlink:href="#r"/><use transform="matrix(0.06234567901234565,0,0,0.06234567901234565,179.6802469135802,0)" xlink:href="#F"/><use transform="matrix(0.06234567901234565,0,0,0.06234567901234565,194.64320987654315,0)" xlink:href="#p"/><use transform="matrix(0.06234567901234565,0,0,0.06234567901234565,207.1123456790123,0)" xlink:href="#T"/><use transform="matrix(0.06234567901234565,0,0,0.06234567901234565,219.58148148148143,0)" xlink:href="#o"/><use transform="matrix(0.06234567901234565,0,0,0.06234567901234565,224.50679012345674,0)" xlink:href="#p"/><use transform="matrix(0.06234567901234565,0,0,0.06234567901234565,236.97592592592588,0)" xlink:href="#r"/></g><path fill="#333" d="M33-154v-36h34v36H33zM33 0v-36h34V0H33" id="Z"/><g id="l"><use transform="matrix(0.06172839506172839,0,0,0.06172839506172839,0,0)" xlink:href="#y"/><use transform="matrix(0.06172839506172839,0,0,0.06172839506172839,12.716049382716047,0)" xlink:href="#s"/><use transform="matrix(0.06172839506172839,0,0,0.06172839506172839,20.061728395061728,0)" xlink:href="#u"/><use transform="matrix(0.06172839506172839,0,0,0.06172839506172839,32.407407407407405,0)" xlink:href="#p"/><use transform="matrix(0.06172839506172839,0,0,0.06172839506172839,44.75308641975308,0)" xlink:href="#z"/><use transform="matrix(0.06172839506172839,0,0,0.06172839506172839,55.86419753086419,0)" xlink:href="#u"/><use transform="matrix(0.06172839506172839,0,0,0.06172839506172839,68.20987654320987,0)" xlink:href="#v"/><use transform="matrix(0.06172839506172839,0,0,0.06172839506172839,79.32098765432099,0)" xlink:href="#q"/><use transform="matrix(0.06172839506172839,0,0,0.06172839506172839,85.49382716049382,0)" xlink:href="#o"/><use transform="matrix(0.06172839506172839,0,0,0.06172839506172839,90.37037037037037,0)" xlink:href="#A"/><use transform="matrix(0.06172839506172839,0,0,0.06172839506172839,102.71604938271605,0)" xlink:href="#p"/><use transform="matrix(0.06172839506172839,0,0,0.06172839506172839,115.06172839506173,0)" xlink:href="#M"/><use transform="matrix(0.06172839506172839,0,0,0.06172839506172839,122.40740740740742,0)" xlink:href="#Z"/></g><g id="m"><use transform="matrix(0.06172839506172839,0,0,0.06172839506172839,0,0)" xlink:href="#K"/><use transform="matrix(0.06172839506172839,0,0,0.06172839506172839,17.28395061728395,0)" xlink:href="#L"/><use transform="matrix(0.06172839506172839,0,0,0.06172839506172839,29.629629629629626,0)" xlink:href="#r"/><use transform="matrix(0.06172839506172839,0,0,0.06172839506172839,41.9753086419753,0)" xlink:href="#s"/><use transform="matrix(0.06172839506172839,0,0,0.06172839506172839,49.32098765432098,0)" xlink:href="#u"/><use transform="matrix(0.06172839506172839,0,0,0.06172839506172839,61.66666666666666,0)" xlink:href="#q"/><use transform="matrix(0.06172839506172839,0,0,0.06172839506172839,67.83950617283949,0)" xlink:href="#o"/><use transform="matrix(0.06172839506172839,0,0,0.06172839506172839,72.71604938271604,0)" xlink:href="#A"/><use transform="matrix(0.06172839506172839,0,0,0.06172839506172839,85.06172839506172,0)" xlink:href="#p"/><use transform="matrix(0.06172839506172839,0,0,0.06172839506172839,97.4074074074074,0)" xlink:href="#B"/><use transform="matrix(0.06172839506172839,0,0,0.06172839506172839,113.39506172839506,0)" xlink:href="#r"/><use transform="matrix(0.06172839506172839,0,0,0.06172839506172839,125.74074074074075,0)" xlink:href="#z"/><use transform="matrix(0.06172839506172839,0,0,0.06172839506172839,136.85185185185185,0)" xlink:href="#C"/><use transform="matrix(0.06172839506172839,0,0,0.06172839506172839,149.19753086419752,0)" xlink:href="#D"/><use transform="matrix(0.06172839506172839,0,0,0.06172839506172839,154.07407407407405,0)" xlink:href="#q"/></g></defs></g></svg>