<svg xmlns="http://www.w3.org/2000/svg" xmlns:xlink="http://www.w3.org/1999/xlink" xmlns:lucid="lucid" width="922" height="402"><g transform="translate(-39 -39)" lucid:page-tab-id="0_0"><path d="M0 0h3677.73v2581.67H0z" fill="#fff"/><path d="M60 186c0-3.3 2.7-6 6-6h368c3.3 0 6 2.7 6 6v108c0 3.3-2.7 6-6 6H66c-3.3 0-6-2.7-6-6z" stroke="#5e5e5e" stroke-width="2" fill="#ffc374"/><path d="M60 249.87h380" stroke="#5e5e5e" stroke-width="2" fill="none"/><use xlink:href="#a" transform="matrix(1,0,0,1,68,188) translate(112.85864197530869 18.022222222222226)"/><use xlink:href="#b" transform="matrix(1,0,0,1,68,188) translate(45.026543209876564 44.95555555555555)"/><use xlink:href="#c" transform="matrix(1,0,0,1,72,257.8666666666667) translate(0 21.444444444444443)"/><use xlink:href="#d" transform="matrix(1,0,0,1,72,257.8666666666667) translate(19.1358024691358 21.444444444444443)"/><use xlink:href="#e" transform="matrix(1,0,0,1,72,257.8666666666667) translate(142.40740740740742 21.444444444444443)"/><path d="M560 196c0-3.3 2.7-6 6-6h368c3.3 0 6 2.7 6 6v88c0 3.3-2.7 6-6 6H566c-3.3 0-6-2.7-6-6z" stroke="#5e5e5e" stroke-width="2" fill="#ffc374"/><path d="M560 232.93h380" stroke="#5e5e5e" stroke-width="2" fill="none"/><use xlink:href="#f" transform="matrix(1,0,0,1,568,198) translate(3.940740740740779 17.988888888888887)"/><use xlink:href="#c" transform="matrix(1,0,0,1,572,240.93333333333334) translate(0 24.944444444444443)"/><use xlink:href="#d" transform="matrix(1,0,0,1,572,240.93333333333334) translate(19.1358024691358 24.944444444444443)"/><use xlink:href="#e" transform="matrix(1,0,0,1,572,240.93333333333334) translate(142.40740740740742 24.944444444444443)"/><path d="M558 240h-10.94m-10.95 0h-21.88m-10.94 0h-21.9m-10.93 0H459.5" stroke="#333" stroke-width="2" fill="none"/><path d="M559 241h-1.03v-2H559" fill="#333"/><path d="M444.24 240l14.26-4.64v9.28z" stroke="#333" stroke-width="2" fill="#fff"/><path d="M560 66c0-3.3 2.7-6 6-6h368c3.3 0 6 2.7 6 6v88c0 3.3-2.7 6-6 6H566c-3.3 0-6-2.7-6-6z" stroke="#5e5e5e" stroke-width="2" fill="#ffc374"/><path d="M560 102.93h380" stroke="#5e5e5e" stroke-width="2" fill="none"/><use xlink:href="#g" transform="matrix(1,0,0,1,568,68) translate(1.4469135802469566 17.988888888888887)"/><use xlink:href="#c" transform="matrix(1,0,0,1,572,110.93333333333332) translate(0 24.944444444444443)"/><use xlink:href="#d" transform="matrix(1,0,0,1,572,110.93333333333332) translate(19.1358024691358 24.944444444444443)"/><use xlink:href="#e" transform="matrix(1,0,0,1,572,110.93333333333332) translate(142.40740740740742 24.944444444444443)"/><path d="M558 110h-8.67m-8.66 0h-17.34m-8.66 0H506l-3.03.82-2.15 2.15L500 116v9.83m0 9.84v19.66m0 9.84v19.66m0 9.84v19.66m0 9.84V234l-.82 3.03-2.15 2.15-3.03.82h-11.5m-11.5 0h-11.5" stroke="#333" stroke-width="2" fill="none"/><path d="M559 111h-1.03v-2H559" fill="#333"/><path d="M444.24 240l14.26-4.64v9.28z" stroke="#333" stroke-width="2" fill="#fff"/><path d="M560 326c0-3.3 2.7-6 6-6h368c3.3 0 6 2.7 6 6v88c0 3.3-2.7 6-6 6H566c-3.3 0-6-2.7-6-6z" stroke="#5e5e5e" stroke-width="2" fill="#ffc374"/><path d="M560 362.93h380" stroke="#5e5e5e" stroke-width="2" fill="none"/><g><use xlink:href="#h" transform="matrix(1,0,0,1,568,328) translate(48.143827160493856 17.988888888888887)"/></g><g><use xlink:href="#c" transform="matrix(1,0,0,1,572,370.93333333333334) translate(0 24.944444444444443)"/><use xlink:href="#d" transform="matrix(1,0,0,1,572,370.93333333333334) translate(19.1358024691358 24.944444444444443)"/><use xlink:href="#e" transform="matrix(1,0,0,1,572,370.93333333333334) translate(142.40740740740742 24.944444444444443)"/></g><path d="M558 370h-8.67m-8.66 0h-17.34m-8.66 0H506l-3.03-.82-2.15-2.15L500 364v-9.83m0-9.84v-19.66m0-9.84v-19.66m0-9.84v-19.66m0-9.84V246l-.82-3.03-2.15-2.15L494 240h-11.5m-11.5 0h-11.5" stroke="#333" stroke-width="2" fill="none"/><path d="M559 371h-1.03v-2H559" fill="#333"/><path d="M444.24 240l14.26-4.64v9.28z" stroke="#333" stroke-width="2" fill="#fff"/><defs><path fill="#333" d="M18-100v-36l175-74v27L42-118l151 64v27" id="i"/><path fill="#333" d="M24-231v-30h32v30H24zM24 0v-190h32V0H24" id="j"/><path fill="#333" d="M117-194c89-4 53 116 60 194h-32v-121c0-31-8-49-39-48C34-167 62-67 57 0H25l-1-190h30c1 10-1 24 2 32 11-22 29-35 61-36" id="k"/><path fill="#333" d="M59-47c-2 24 18 29 38 22v24C64 9 27 4 27-40v-127H5v-23h24l9-43h21v43h35v23H59v120" id="l"/><path fill="#333" d="M100-194c63 0 86 42 84 106H49c0 40 14 67 53 68 26 1 43-12 49-29l28 8c-11 28-37 45-77 45C44 4 14-33 15-96c1-61 26-98 85-98zm52 81c6-60-76-77-97-28-3 7-6 17-6 28h103" id="m"/><path fill="#333" d="M114-163C36-179 61-72 57 0H25l-1-190h30c1 12-1 29 2 39 6-27 23-49 58-41v29" id="n"/><path fill="#333" d="M101-234c-31-9-42 10-38 44h38v23H63V0H32v-167H5v-23h27c-7-52 17-82 69-68v24" id="o"/><path fill="#333" d="M141-36C126-15 110 5 73 4 37 3 15-17 15-53c-1-64 63-63 125-63 3-35-9-54-41-54-24 1-41 7-42 31l-33-3c5-37 33-52 76-52 45 0 72 20 72 64v82c-1 20 7 32 28 27v20c-31 9-61-2-59-35zM48-53c0 20 12 33 32 33 41-3 63-29 60-74-43 2-92-5-92 41" id="p"/><path fill="#333" d="M96-169c-40 0-48 33-48 73s9 75 48 75c24 0 41-14 43-38l32 2c-6 37-31 61-74 61-59 0-76-41-82-99-10-93 101-131 147-64 4 7 5 14 7 22l-32 3c-4-21-16-35-41-35" id="q"/><path fill="#333" d="M18-27v-27l151-64-151-65v-27l175 74v36" id="r"/><g id="a"><use transform="matrix(0.06234567901234565,0,0,0.06234567901234565,0,0)" xlink:href="#i"/><use transform="matrix(0.06234567901234565,0,0,0.06234567901234565,13.092592592592586,0)" xlink:href="#i"/><use transform="matrix(0.06234567901234565,0,0,0.06234567901234565,26.185185185185173,0)" xlink:href="#j"/><use transform="matrix(0.06234567901234565,0,0,0.06234567901234565,31.11049382716048,0)" xlink:href="#k"/><use transform="matrix(0.06234567901234565,0,0,0.06234567901234565,43.57962962962961,0)" xlink:href="#l"/><use transform="matrix(0.06234567901234565,0,0,0.06234567901234565,49.81419753086417,0)" xlink:href="#m"/><use transform="matrix(0.06234567901234565,0,0,0.06234567901234565,62.2833333333333,0)" xlink:href="#n"/><use transform="matrix(0.06234567901234565,0,0,0.06234567901234565,69.70246913580243,0)" xlink:href="#o"/><use transform="matrix(0.06234567901234565,0,0,0.06234567901234565,75.937037037037,0)" xlink:href="#p"/><use transform="matrix(0.06234567901234565,0,0,0.06234567901234565,88.40617283950613,0)" xlink:href="#q"/><use transform="matrix(0.06234567901234565,0,0,0.06234567901234565,99.62839506172834,0)" xlink:href="#m"/><use transform="matrix(0.06234567901234565,0,0,0.06234567901234565,112.09753086419747,0)" xlink:href="#r"/><use transform="matrix(0.06234567901234565,0,0,0.06234567901234565,125.19012345679005,0)" xlink:href="#r"/></g><path fill="#333" d="M33 0v-248h34V0H33" id="s"/><path fill="#333" d="M205 0l-28-72H64L36 0H1l101-248h38L239 0h-34zm-38-99l-47-123c-12 45-31 82-46 123h93" id="t"/><path fill="#333" d="M85-194c31 0 48 13 60 33l-1-100h32l1 261h-30c-2-10 0-23-3-31C134-8 116 4 85 4 32 4 16-35 15-94c0-66 23-100 70-100zm9 24c-40 0-46 34-46 75 0 40 6 74 45 74 42 0 51-32 51-76 0-42-9-74-50-73" id="u"/><path fill="#333" d="M135-143c-3-34-86-38-87 0 15 53 115 12 119 90S17 21 10-45l28-5c4 36 97 45 98 0-10-56-113-15-118-90-4-57 82-63 122-42 12 7 21 19 24 35" id="v"/><path fill="#333" d="M160-131c35 5 61 23 61 61C221 17 115-2 30 0v-248c76 3 177-17 177 60 0 33-19 50-47 57zm-97-11c50-1 110 9 110-42 0-47-63-36-110-37v79zm0 115c55-2 124 14 124-45 0-56-70-42-124-44v89" id="w"/><path fill="#333" d="M179-190L93 31C79 59 56 82 12 73V49c39 6 53-20 64-50L1-190h34L92-34l54-156h33" id="x"/><path fill="#333" d="M209 0H11v-25l151-195H24v-28h176v25L50-27h159V0" id="y"/><path fill="#333" d="M115-194c55 1 70 41 70 98S169 2 115 4C84 4 66-9 55-30l1 105H24l-1-265h31l2 30c10-21 28-34 59-34zm-8 174c40 0 45-34 45-75s-6-73-45-74c-42 0-51 32-51 76 0 43 10 73 51 73" id="z"/><path fill="#333" d="M212-179c-10-28-35-45-73-45-59 0-87 40-87 99 0 60 29 101 89 101 43 0 62-24 78-52l27 14C228-24 195 4 139 4 59 4 22-46 18-125c-6-104 99-153 187-111 19 9 31 26 39 46" id="A"/><path fill="#333" d="M100-194c62-1 85 37 85 99 1 63-27 99-86 99S16-35 15-95c0-66 28-99 85-99zM99-20c44 1 53-31 53-75 0-43-8-75-51-75s-53 32-53 75 10 74 51 75" id="B"/><path fill="#333" d="M185-189c-5-48-123-54-124 2 14 75 158 14 163 119 3 78-121 87-175 55-17-10-28-26-33-46l33-7c5 56 141 63 141-1 0-78-155-14-162-118-5-82 145-84 179-34 5 7 8 16 11 25" id="C"/><path fill="#333" d="M108 0H70L1-190h34L89-25l56-165h34" id="D"/><g id="b"><use transform="matrix(0.06234567901234565,0,0,0.06234567901234565,0,0)" xlink:href="#s"/><use transform="matrix(0.06234567901234565,0,0,0.06234567901234565,6.234567901234565,0)" xlink:href="#t"/><use transform="matrix(0.06234567901234565,0,0,0.06234567901234565,21.19753086419752,0)" xlink:href="#u"/><use transform="matrix(0.06234567901234565,0,0,0.06234567901234565,33.66666666666665,0)" xlink:href="#u"/><use transform="matrix(0.06234567901234565,0,0,0.06234567901234565,46.13580246913578,0)" xlink:href="#n"/><use transform="matrix(0.06234567901234565,0,0,0.06234567901234565,53.55493827160492,0)" xlink:href="#m"/><use transform="matrix(0.06234567901234565,0,0,0.06234567901234565,66.02407407407405,0)" xlink:href="#v"/><use transform="matrix(0.06234567901234565,0,0,0.06234567901234565,77.24629629629626,0)" xlink:href="#v"/><use transform="matrix(0.06234567901234565,0,0,0.06234567901234565,88.46851851851848,0)" xlink:href="#w"/><use transform="matrix(0.06234567901234565,0,0,0.06234567901234565,103.43148148148144,0)" xlink:href="#x"/><use transform="matrix(0.06234567901234565,0,0,0.06234567901234565,114.65370370370366,0)" xlink:href="#y"/><use transform="matrix(0.06234567901234565,0,0,0.06234567901234565,128.30740740740737,0)" xlink:href="#j"/><use transform="matrix(0.06234567901234565,0,0,0.06234567901234565,133.23271604938267,0)" xlink:href="#z"/><use transform="matrix(0.06234567901234565,0,0,0.06234567901234565,145.7018518518518,0)" xlink:href="#A"/><use transform="matrix(0.06234567901234565,0,0,0.06234567901234565,161.84938271604935,0)" xlink:href="#B"/><use transform="matrix(0.06234567901234565,0,0,0.06234567901234565,174.3185185185185,0)" xlink:href="#u"/><use transform="matrix(0.06234567901234565,0,0,0.06234567901234565,186.78765432098763,0)" xlink:href="#m"/><use transform="matrix(0.06234567901234565,0,0,0.06234567901234565,199.25679012345677,0)" xlink:href="#C"/><use transform="matrix(0.06234567901234565,0,0,0.06234567901234565,214.21975308641973,0)" xlink:href="#m"/><use transform="matrix(0.06234567901234565,0,0,0.06234567901234565,226.68888888888887,0)" xlink:href="#n"/><use transform="matrix(0.06234567901234565,0,0,0.06234567901234565,234.108024691358,0)" xlink:href="#D"/><use transform="matrix(0.06234567901234565,0,0,0.06234567901234565,245.33024691358023,0)" xlink:href="#j"/><use transform="matrix(0.06234567901234565,0,0,0.06234567901234565,250.25555555555553,0)" xlink:href="#q"/><use transform="matrix(0.06234567901234565,0,0,0.06234567901234565,261.47777777777776,0)" xlink:href="#m"/></g><path fill="#333" d="M118-107v75H92v-75H18v-26h74v-75h26v75h74v26h-74" id="E"/><use transform="matrix(0.06172839506172839,0,0,0.06172839506172839,0,0)" xlink:href="#E" id="c"/><path fill="#333" d="M143 4C61 4 22-44 18-125c-5-107 100-154 193-111 17 8 29 25 37 43l-32 9c-13-25-37-40-76-40-61 0-88 39-88 99 0 61 29 100 91 101 35 0 62-11 79-27v-45h-74v-28h105v86C228-13 192 4 143 4" id="F"/><path fill="#333" d="M87 75C49 33 22-17 22-94c0-76 28-126 65-167h31c-38 41-64 92-64 168S80 34 118 75H87" id="G"/><path fill="#333" d="M140-251c81 0 123 46 123 126C263-53 228-8 163 1c7 30 30 48 69 40v23c-55 16-95-15-103-61C56-3 17-48 17-125c0-80 42-126 123-126zm0 227c63 0 89-41 89-101s-29-99-89-99c-61 0-89 39-89 99S79-25 140-24" id="H"/><path fill="#333" d="M84 4C-5 8 30-112 23-190h32v120c0 31 7 50 39 49 72-2 45-101 50-169h31l1 190h-30c-1-10 1-25-2-33-11 22-28 36-60 37" id="I"/><path fill="#333" d="M33-261c38 41 65 92 65 168S71 34 33 75H2C39 34 66-17 66-93S39-220 2-261h31" id="J"/><path fill="#333" d="M33-154v-36h34v36H33zM33 0v-36h34V0H33" id="K"/><g id="d"><use transform="matrix(0.06172839506172839,0,0,0.06172839506172839,0,0)" xlink:href="#F"/><use transform="matrix(0.06172839506172839,0,0,0.06172839506172839,17.28395061728395,0)" xlink:href="#m"/><use transform="matrix(0.06172839506172839,0,0,0.06172839506172839,29.629629629629626,0)" xlink:href="#l"/><use transform="matrix(0.06172839506172839,0,0,0.06172839506172839,35.80246913580247,0)" xlink:href="#G"/><use transform="matrix(0.06172839506172839,0,0,0.06172839506172839,43.148148148148145,0)" xlink:href="#H"/><use transform="matrix(0.06172839506172839,0,0,0.06172839506172839,60.432098765432094,0)" xlink:href="#I"/><use transform="matrix(0.06172839506172839,0,0,0.06172839506172839,72.77777777777777,0)" xlink:href="#m"/><use transform="matrix(0.06172839506172839,0,0,0.06172839506172839,85.12345679012346,0)" xlink:href="#n"/><use transform="matrix(0.06172839506172839,0,0,0.06172839506172839,92.46913580246914,0)" xlink:href="#x"/><use transform="matrix(0.06172839506172839,0,0,0.06172839506172839,103.58024691358025,0)" xlink:href="#J"/><use transform="matrix(0.06172839506172839,0,0,0.06172839506172839,110.92592592592594,0)" xlink:href="#K"/></g><path fill="#333" d="M233-177c-1 41-23 64-60 70L243 0h-38l-65-103H63V0H30v-248c88 3 205-21 203 71zM63-129c60-2 137 13 137-47 0-61-80-42-137-45v92" id="L"/><path fill="#333" d="M24 0v-261h32V0H24" id="M"/><g id="e"><use transform="matrix(0.06172839506172839,0,0,0.06172839506172839,0,0)" xlink:href="#L"/><use transform="matrix(0.06172839506172839,0,0,0.06172839506172839,15.987654320987653,0)" xlink:href="#m"/><use transform="matrix(0.06172839506172839,0,0,0.06172839506172839,28.333333333333332,0)" xlink:href="#v"/><use transform="matrix(0.06172839506172839,0,0,0.06172839506172839,39.44444444444444,0)" xlink:href="#I"/><use transform="matrix(0.06172839506172839,0,0,0.06172839506172839,51.79012345679012,0)" xlink:href="#M"/><use transform="matrix(0.06172839506172839,0,0,0.06172839506172839,56.666666666666664,0)" xlink:href="#l"/></g><path fill="#333" d="M106-169C34-169 62-67 57 0H25v-261h32l-1 103c12-21 28-36 61-36 89 0 53 116 60 194h-32v-121c2-32-8-49-39-48" id="N"/><path fill="#333" d="M30-248c118-7 216 8 213 122C240-48 200 0 122 0H30v-248zM63-27c89 8 146-16 146-99s-60-101-146-95v194" id="O"/><g id="f"><use transform="matrix(0.06234567901234565,0,0,0.06234567901234565,0,0)" xlink:href="#t"/><use transform="matrix(0.06234567901234565,0,0,0.06234567901234565,14.962962962962957,0)" xlink:href="#u"/><use transform="matrix(0.06234567901234565,0,0,0.06234567901234565,27.432098765432087,0)" xlink:href="#u"/><use transform="matrix(0.06234567901234565,0,0,0.06234567901234565,39.90123456790122,0)" xlink:href="#n"/><use transform="matrix(0.06234567901234565,0,0,0.06234567901234565,47.320370370370355,0)" xlink:href="#m"/><use transform="matrix(0.06234567901234565,0,0,0.06234567901234565,59.78950617283949,0)" xlink:href="#v"/><use transform="matrix(0.06234567901234565,0,0,0.06234567901234565,71.01172839506171,0)" xlink:href="#v"/><use transform="matrix(0.06234567901234565,0,0,0.06234567901234565,82.23395061728392,0)" xlink:href="#w"/><use transform="matrix(0.06234567901234565,0,0,0.06234567901234565,97.19691358024689,0)" xlink:href="#x"/><use transform="matrix(0.06234567901234565,0,0,0.06234567901234565,108.4191358024691,0)" xlink:href="#y"/><use transform="matrix(0.06234567901234565,0,0,0.06234567901234565,122.0728395061728,0)" xlink:href="#j"/><use transform="matrix(0.06234567901234565,0,0,0.06234567901234565,126.9981481481481,0)" xlink:href="#z"/><use transform="matrix(0.06234567901234565,0,0,0.06234567901234565,139.46728395061723,0)" xlink:href="#A"/><use transform="matrix(0.06234567901234565,0,0,0.06234567901234565,155.61481481481476,0)" xlink:href="#B"/><use transform="matrix(0.06234567901234565,0,0,0.06234567901234565,168.0839506172839,0)" xlink:href="#u"/><use transform="matrix(0.06234567901234565,0,0,0.06234567901234565,180.55308641975304,0)" xlink:href="#m"/><use transform="matrix(0.06234567901234565,0,0,0.06234567901234565,193.02222222222218,0)" xlink:href="#A"/><use transform="matrix(0.06234567901234565,0,0,0.06234567901234565,209.16975308641972,0)" xlink:href="#p"/><use transform="matrix(0.06234567901234565,0,0,0.06234567901234565,221.63888888888886,0)" xlink:href="#q"/><use transform="matrix(0.06234567901234565,0,0,0.06234567901234565,232.8611111111111,0)" xlink:href="#N"/><use transform="matrix(0.06234567901234565,0,0,0.06234567901234565,245.33024691358023,0)" xlink:href="#m"/><use transform="matrix(0.06234567901234565,0,0,0.06234567901234565,257.79938271604937,0)" xlink:href="#O"/><use transform="matrix(0.06234567901234565,0,0,0.06234567901234565,273.94691358024687,0)" xlink:href="#m"/><use transform="matrix(0.06234567901234565,0,0,0.06234567901234565,286.416049382716,0)" xlink:href="#q"/><use transform="matrix(0.06234567901234565,0,0,0.06234567901234565,297.6382716049382,0)" xlink:href="#B"/><use transform="matrix(0.06234567901234565,0,0,0.06234567901234565,310.1074074074073,0)" xlink:href="#n"/><use transform="matrix(0.06234567901234565,0,0,0.06234567901234565,317.5265432098765,0)" xlink:href="#p"/><use transform="matrix(0.06234567901234565,0,0,0.06234567901234565,329.9956790123456,0)" xlink:href="#l"/><use transform="matrix(0.06234567901234565,0,0,0.06234567901234565,336.2302469135802,0)" xlink:href="#B"/><use transform="matrix(0.06234567901234565,0,0,0.06234567901234565,348.6993827160493,0)" xlink:href="#n"/></g><path fill="#333" d="M30 0v-248h33v221h125V0H30" id="P"/><path fill="#333" d="M177-190C167-65 218 103 67 71c-23-6-38-20-44-43l32-5c15 47 100 32 89-28v-30C133-14 115 1 83 1 29 1 15-40 15-95c0-56 16-97 71-98 29-1 48 16 59 35 1-10 0-23 2-32h30zM94-22c36 0 50-32 50-73 0-42-14-75-50-75-39 0-46 34-46 75s6 73 46 73" id="Q"/><g id="g"><use transform="matrix(0.06234567901234565,0,0,0.06234567901234565,0,0)" xlink:href="#t"/><use transform="matrix(0.06234567901234565,0,0,0.06234567901234565,14.962962962962957,0)" xlink:href="#u"/><use transform="matrix(0.06234567901234565,0,0,0.06234567901234565,27.432098765432087,0)" xlink:href="#u"/><use transform="matrix(0.06234567901234565,0,0,0.06234567901234565,39.90123456790122,0)" xlink:href="#n"/><use transform="matrix(0.06234567901234565,0,0,0.06234567901234565,47.320370370370355,0)" xlink:href="#m"/><use transform="matrix(0.06234567901234565,0,0,0.06234567901234565,59.78950617283949,0)" xlink:href="#v"/><use transform="matrix(0.06234567901234565,0,0,0.06234567901234565,71.01172839506171,0)" xlink:href="#v"/><use transform="matrix(0.06234567901234565,0,0,0.06234567901234565,82.23395061728392,0)" xlink:href="#w"/><use transform="matrix(0.06234567901234565,0,0,0.06234567901234565,97.19691358024689,0)" xlink:href="#x"/><use transform="matrix(0.06234567901234565,0,0,0.06234567901234565,108.4191358024691,0)" xlink:href="#y"/><use transform="matrix(0.06234567901234565,0,0,0.06234567901234565,122.0728395061728,0)" xlink:href="#j"/><use transform="matrix(0.06234567901234565,0,0,0.06234567901234565,126.9981481481481,0)" xlink:href="#z"/><use transform="matrix(0.06234567901234565,0,0,0.06234567901234565,139.46728395061723,0)" xlink:href="#A"/><use transform="matrix(0.06234567901234565,0,0,0.06234567901234565,155.61481481481476,0)" xlink:href="#B"/><use transform="matrix(0.06234567901234565,0,0,0.06234567901234565,168.0839506172839,0)" xlink:href="#u"/><use transform="matrix(0.06234567901234565,0,0,0.06234567901234565,180.55308641975304,0)" xlink:href="#m"/><use transform="matrix(0.06234567901234565,0,0,0.06234567901234565,193.02222222222218,0)" xlink:href="#P"/><use transform="matrix(0.06234567901234565,0,0,0.06234567901234565,205.49135802469132,0)" xlink:href="#B"/><use transform="matrix(0.06234567901234565,0,0,0.06234567901234565,217.96049382716046,0)" xlink:href="#Q"/><use transform="matrix(0.06234567901234565,0,0,0.06234567901234565,230.4296296296296,0)" xlink:href="#Q"/><use transform="matrix(0.06234567901234565,0,0,0.06234567901234565,242.89876543209874,0)" xlink:href="#m"/><use transform="matrix(0.06234567901234565,0,0,0.06234567901234565,255.3679012345679,0)" xlink:href="#n"/><use transform="matrix(0.06234567901234565,0,0,0.06234567901234565,262.787037037037,0)" xlink:href="#O"/><use transform="matrix(0.06234567901234565,0,0,0.06234567901234565,278.9345679012345,0)" xlink:href="#m"/><use transform="matrix(0.06234567901234565,0,0,0.06234567901234565,291.4037037037036,0)" xlink:href="#q"/><use transform="matrix(0.06234567901234565,0,0,0.06234567901234565,302.62592592592586,0)" xlink:href="#B"/><use transform="matrix(0.06234567901234565,0,0,0.06234567901234565,315.09506172839497,0)" xlink:href="#n"/><use transform="matrix(0.06234567901234565,0,0,0.06234567901234565,322.5141975308641,0)" xlink:href="#p"/><use transform="matrix(0.06234567901234565,0,0,0.06234567901234565,334.98333333333323,0)" xlink:href="#l"/><use transform="matrix(0.06234567901234565,0,0,0.06234567901234565,341.2179012345678,0)" xlink:href="#B"/><use transform="matrix(0.06234567901234565,0,0,0.06234567901234565,353.68703703703693,0)" xlink:href="#n"/></g><g id="h"><use transform="matrix(0.06234567901234565,0,0,0.06234567901234565,0,0)" xlink:href="#t"/><use transform="matrix(0.06234567901234565,0,0,0.06234567901234565,14.962962962962957,0)" xlink:href="#u"/><use transform="matrix(0.06234567901234565,0,0,0.06234567901234565,27.432098765432087,0)" xlink:href="#u"/><use transform="matrix(0.06234567901234565,0,0,0.06234567901234565,39.90123456790122,0)" xlink:href="#n"/><use transform="matrix(0.06234567901234565,0,0,0.06234567901234565,47.320370370370355,0)" xlink:href="#m"/><use transform="matrix(0.06234567901234565,0,0,0.06234567901234565,59.78950617283949,0)" xlink:href="#v"/><use transform="matrix(0.06234567901234565,0,0,0.06234567901234565,71.01172839506171,0)" xlink:href="#v"/><use transform="matrix(0.06234567901234565,0,0,0.06234567901234565,82.23395061728392,0)" xlink:href="#w"/><use transform="matrix(0.06234567901234565,0,0,0.06234567901234565,97.19691358024689,0)" xlink:href="#x"/><use transform="matrix(0.06234567901234565,0,0,0.06234567901234565,108.4191358024691,0)" xlink:href="#y"/><use transform="matrix(0.06234567901234565,0,0,0.06234567901234565,122.0728395061728,0)" xlink:href="#j"/><use transform="matrix(0.06234567901234565,0,0,0.06234567901234565,126.9981481481481,0)" xlink:href="#z"/><use transform="matrix(0.06234567901234565,0,0,0.06234567901234565,139.46728395061723,0)" xlink:href="#A"/><use transform="matrix(0.06234567901234565,0,0,0.06234567901234565,155.61481481481476,0)" xlink:href="#B"/><use transform="matrix(0.06234567901234565,0,0,0.06234567901234565,168.0839506172839,0)" xlink:href="#u"/><use transform="matrix(0.06234567901234565,0,0,0.06234567901234565,180.55308641975304,0)" xlink:href="#m"/><use transform="matrix(0.06234567901234565,0,0,0.06234567901234565,193.02222222222218,0)" xlink:href="#C"/><use transform="matrix(0.06234567901234565,0,0,0.06234567901234565,207.98518518518514,0)" xlink:href="#m"/><use transform="matrix(0.06234567901234565,0,0,0.06234567901234565,220.45432098765428,0)" xlink:href="#n"/><use transform="matrix(0.06234567901234565,0,0,0.06234567901234565,227.8734567901234,0)" xlink:href="#D"/><use transform="matrix(0.06234567901234565,0,0,0.06234567901234565,239.09567901234564,0)" xlink:href="#j"/><use transform="matrix(0.06234567901234565,0,0,0.06234567901234565,244.02098765432095,0)" xlink:href="#q"/><use transform="matrix(0.06234567901234565,0,0,0.06234567901234565,255.24320987654318,0)" xlink:href="#m"/></g></defs></g></svg>