<svg xmlns="http://www.w3.org/2000/svg" xmlns:xlink="http://www.w3.org/1999/xlink" xmlns:lucid="lucid" width="1502" height="435"><g transform="translate(-1879 -699)" lucid:page-tab-id="0_0"><path d="M0 0h3677.73v1322.83H0z" fill="#fff"/><path d="M1900 866c0-3.3 2.7-6 6-6h408c3.3 0 6 2.7 6 6v101c0 3.3-2.7 6-6 6h-408c-3.3 0-6-2.7-6-6z" stroke="#5e5e5e" stroke-width="2" fill="#ffc374"/><path d="M1900 929.87h420" stroke="#5e5e5e" stroke-width="2" fill="none"/><use xlink:href="#a" transform="matrix(1,0,0,1,1908,868) translate(132.85864197530867 18.022222222222226)"/><use xlink:href="#b" transform="matrix(1,0,0,1,1908,868) translate(117.95802469135805 44.95555555555555)"/><use xlink:href="#c" transform="matrix(1,0,0,1,1912,937.8666666666667) translate(0 17.944444444444443)"/><use xlink:href="#d" transform="matrix(1,0,0,1,1912,937.8666666666667) translate(19.1358024691358 17.944444444444443)"/><use xlink:href="#e" transform="matrix(1,0,0,1,1912,937.8666666666667) translate(266.7283950617283 17.944444444444443)"/><path d="M2940 866c0-3.3 2.7-6 6-6h408c3.3 0 6 2.7 6 6v101c0 3.3-2.7 6-6 6h-408c-3.3 0-6-2.7-6-6z" stroke="#5e5e5e" stroke-width="2" fill="#ffc374"/><path d="M2940 929.87h420" stroke="#5e5e5e" stroke-width="2" fill="none"/><use xlink:href="#a" transform="matrix(1,0,0,1,2948,868) translate(132.85864197530867 18.022222222222226)"/><use xlink:href="#f" transform="matrix(1,0,0,1,2948,868) translate(76.21759259259261 44.95555555555555)"/><use xlink:href="#g" transform="matrix(1,0,0,1,2952,937.8666666666667) translate(0 17.944444444444443)"/><use xlink:href="#h" transform="matrix(1,0,0,1,2952,937.8666666666667) translate(19.1358024691358 17.944444444444443)"/><use xlink:href="#i" transform="matrix(1,0,0,1,2952,937.8666666666667) translate(189.19753086419752 17.944444444444443)"/><path d="M2420 879.5c0-3.3 2.7-6 6-6h408c3.3 0 6 2.7 6 6v74c0 3.3-2.7 6-6 6h-408c-3.3 0-6-2.7-6-6z" stroke="#5e5e5e" stroke-width="2" fill="#ffc374"/><path d="M2420 916.43h420" stroke="#5e5e5e" stroke-width="2" fill="none"/><use xlink:href="#j" transform="matrix(1,0,0,1,2428,881.5) translate(99.90895061728399 17.988888888888887)"/><use xlink:href="#c" transform="matrix(1,0,0,1,2432,924.4333333333333) translate(0 17.944444444444443)"/><use xlink:href="#d" transform="matrix(1,0,0,1,2432,924.4333333333333) translate(19.1358024691358 17.944444444444443)"/><use xlink:href="#e" transform="matrix(1,0,0,1,2432,924.4333333333333) translate(266.7283950617283 17.944444444444443)"/><path d="M2418 916.5h-8.72m-8.72 0h-17.45m-8.7 0h-17.45m-8.73 0h-8.72" stroke="#333" stroke-width="2" fill="none"/><path d="M2419 917.5h-1.03v-2h1.03" fill="#333"/><path d="M2324.24 916.5l14.26-4.64v9.28z" stroke="#333" stroke-width="2" fill="#fff"/><path d="M2420 726c0-3.3 2.7-6 6-6h408c3.3 0 6 2.7 6 6v74c0 3.3-2.7 6-6 6h-408c-3.3 0-6-2.7-6-6z" stroke="#5e5e5e" stroke-width="2" fill="#ffc374"/><path d="M2420 762.93h420" stroke="#5e5e5e" stroke-width="2" fill="none"/><use xlink:href="#k" transform="matrix(1,0,0,1,2428,728) translate(85.5382716049383 17.988888888888887)"/><use xlink:href="#c" transform="matrix(1,0,0,1,2432,770.9333333333333) translate(0 17.944444444444443)"/><use xlink:href="#d" transform="matrix(1,0,0,1,2432,770.9333333333333) translate(19.1358024691358 17.944444444444443)"/><use xlink:href="#e" transform="matrix(1,0,0,1,2432,770.9333333333333) translate(266.7283950617283 17.944444444444443)"/><path d="M2418 763h-14m-14 0h-14l-3.03.82-2.15 2.15-.82 3.03v9.43m0 9.44v18.86m0 9.44v18.86m0 9.44v18.86m0 9.44v18.86m0 9.44v9.43l-.82 3.03-2.15 2.15-3.03.82h-8.17m-8.16 0h-8.17" stroke="#333" stroke-width="2" fill="none"/><path d="M2419 764h-1.03v-2h1.03" fill="#333"/><path d="M2324.24 916.5l14.26-4.64v9.28z" stroke="#333" stroke-width="2" fill="#fff"/><path d="M2420 1033c0-3.3 2.7-6 6-6h408c3.3 0 6 2.7 6 6v74c0 3.3-2.7 6-6 6h-408c-3.3 0-6-2.7-6-6z" stroke="#5e5e5e" stroke-width="2" fill="#ffc374"/><path d="M2420 1069.93h420" stroke="#5e5e5e" stroke-width="2" fill="none"/><use xlink:href="#l" transform="matrix(1,0,0,1,2428,1035) translate(96.76049382716054 17.988888888888887)"/><use xlink:href="#c" transform="matrix(1,0,0,1,2432,1077.9333333333334) translate(0 17.944444444444443)"/><use xlink:href="#d" transform="matrix(1,0,0,1,2432,1077.9333333333334) translate(19.1358024691358 17.944444444444443)"/><use xlink:href="#e" transform="matrix(1,0,0,1,2432,1077.9333333333334) translate(266.7283950617283 17.944444444444443)"/><path d="M2418 1070h-14m-14 0h-14l-3.03-.82-2.15-2.15-.82-3.03v-9.43m0-9.44v-18.86m0-9.44v-18.86m0-9.44v-18.86m0-9.44v-18.86m0-9.44v-9.43l-.82-3.03-2.15-2.15-3.03-.82h-8.17m-8.16 0h-8.17" stroke="#333" stroke-width="2" fill="none"/><path d="M2419 1071h-1.03v-2h1.03" fill="#333"/><path d="M2324.24 916.5l14.26-4.64v9.28z" stroke="#333" stroke-width="2" fill="#fff"/><path d="M2938 916.5h-14m-14 0h-14l-3.03-.82-2.15-2.15-.82-3.03v-9.43m0-9.44v-18.86m0-9.44v-18.86m0-9.44v-18.86m0-9.44v-18.86m0-9.44V769l-.82-3.03-2.15-2.15-3.03-.82h-13.73m-13.72 0h-13.73" stroke="#333" stroke-width="2" fill="none"/><path d="M2939 917.5h-1.03v-2h1.03" fill="#333"/><path d="M2860.18 752.82L2842.96 763l17.22 10.18M2938 916.5h-14m-14 0h-14l-3.03.82-2.15 2.15-.82 3.03v9.43m0 9.44v18.86m0 9.44v18.86m0 9.44v18.86m0 9.44v18.86m0 9.44v9.43l-.82 3.03-2.15 2.15-3.03.82h-13.73m-13.72 0h-13.73" stroke="#333" stroke-width="2" fill="none"/><path d="M2939 917.5h-1.03v-2h1.03" fill="#333"/><path d="M2860.18 1059.82l-17.22 10.18 17.22 10.18M2938 916.5h-10.58m-10.57 0h-21.15m-10.58 0h-21.15m-10.58 0h-10.58" stroke="#333" stroke-width="2" fill="none"/><path d="M2939 917.5h-1.03v-2h1.03" fill="#333"/><path d="M2860.18 906.32l-17.22 10.18 17.22 10.18" stroke="#333" stroke-width="2" fill="none"/><defs><path fill="#333" d="M18-100v-36l175-74v27L42-118l151 64v27" id="m"/><path fill="#333" d="M24-231v-30h32v30H24zM24 0v-190h32V0H24" id="n"/><path fill="#333" d="M117-194c89-4 53 116 60 194h-32v-121c0-31-8-49-39-48C34-167 62-67 57 0H25l-1-190h30c1 10-1 24 2 32 11-22 29-35 61-36" id="o"/><path fill="#333" d="M59-47c-2 24 18 29 38 22v24C64 9 27 4 27-40v-127H5v-23h24l9-43h21v43h35v23H59v120" id="p"/><path fill="#333" d="M100-194c63 0 86 42 84 106H49c0 40 14 67 53 68 26 1 43-12 49-29l28 8c-11 28-37 45-77 45C44 4 14-33 15-96c1-61 26-98 85-98zm52 81c6-60-76-77-97-28-3 7-6 17-6 28h103" id="q"/><path fill="#333" d="M114-163C36-179 61-72 57 0H25l-1-190h30c1 12-1 29 2 39 6-27 23-49 58-41v29" id="r"/><path fill="#333" d="M101-234c-31-9-42 10-38 44h38v23H63V0H32v-167H5v-23h27c-7-52 17-82 69-68v24" id="s"/><path fill="#333" d="M141-36C126-15 110 5 73 4 37 3 15-17 15-53c-1-64 63-63 125-63 3-35-9-54-41-54-24 1-41 7-42 31l-33-3c5-37 33-52 76-52 45 0 72 20 72 64v82c-1 20 7 32 28 27v20c-31 9-61-2-59-35zM48-53c0 20 12 33 32 33 41-3 63-29 60-74-43 2-92-5-92 41" id="t"/><path fill="#333" d="M96-169c-40 0-48 33-48 73s9 75 48 75c24 0 41-14 43-38l32 2c-6 37-31 61-74 61-59 0-76-41-82-99-10-93 101-131 147-64 4 7 5 14 7 22l-32 3c-4-21-16-35-41-35" id="u"/><path fill="#333" d="M18-27v-27l151-64-151-65v-27l175 74v36" id="v"/><g id="a"><use transform="matrix(0.06234567901234565,0,0,0.06234567901234565,0,0)" xlink:href="#m"/><use transform="matrix(0.06234567901234565,0,0,0.06234567901234565,13.092592592592586,0)" xlink:href="#m"/><use transform="matrix(0.06234567901234565,0,0,0.06234567901234565,26.185185185185173,0)" xlink:href="#n"/><use transform="matrix(0.06234567901234565,0,0,0.06234567901234565,31.11049382716048,0)" xlink:href="#o"/><use transform="matrix(0.06234567901234565,0,0,0.06234567901234565,43.57962962962961,0)" xlink:href="#p"/><use transform="matrix(0.06234567901234565,0,0,0.06234567901234565,49.81419753086417,0)" xlink:href="#q"/><use transform="matrix(0.06234567901234565,0,0,0.06234567901234565,62.2833333333333,0)" xlink:href="#r"/><use transform="matrix(0.06234567901234565,0,0,0.06234567901234565,69.70246913580243,0)" xlink:href="#s"/><use transform="matrix(0.06234567901234565,0,0,0.06234567901234565,75.937037037037,0)" xlink:href="#t"/><use transform="matrix(0.06234567901234565,0,0,0.06234567901234565,88.40617283950613,0)" xlink:href="#u"/><use transform="matrix(0.06234567901234565,0,0,0.06234567901234565,99.62839506172834,0)" xlink:href="#q"/><use transform="matrix(0.06234567901234565,0,0,0.06234567901234565,112.09753086419747,0)" xlink:href="#v"/><use transform="matrix(0.06234567901234565,0,0,0.06234567901234565,125.19012345679005,0)" xlink:href="#v"/></g><path fill="#333" d="M33 0v-248h34V0H33" id="w"/><path fill="#333" d="M185-189c-5-48-123-54-124 2 14 75 158 14 163 119 3 78-121 87-175 55-17-10-28-26-33-46l33-7c5 56 141 63 141-1 0-78-155-14-162-118-5-82 145-84 179-34 5 7 8 16 11 25" id="x"/><path fill="#333" d="M106-169C34-169 62-67 57 0H25v-261h32l-1 103c12-21 28-36 61-36 89 0 53 116 60 194h-32v-121c2-32-8-49-39-48" id="y"/><path fill="#333" d="M115-194c55 1 70 41 70 98S169 2 115 4C84 4 66-9 55-30l1 105H24l-1-265h31l2 30c10-21 28-34 59-34zm-8 174c40 0 45-34 45-75s-6-73-45-74c-42 0-51 32-51 76 0 43 10 73 51 73" id="z"/><path fill="#333" d="M177-190C167-65 218 103 67 71c-23-6-38-20-44-43l32-5c15 47 100 32 89-28v-30C133-14 115 1 83 1 29 1 15-40 15-95c0-56 16-97 71-98 29-1 48 16 59 35 1-10 0-23 2-32h30zM94-22c36 0 50-32 50-73 0-42-14-75-50-75-39 0-46 34-46 75s6 73 46 73" id="A"/><path fill="#333" d="M108 0H70L1-190h34L89-25l56-165h34" id="B"/><g id="b"><use transform="matrix(0.06234567901234565,0,0,0.06234567901234565,0,0)" xlink:href="#w"/><use transform="matrix(0.06234567901234565,0,0,0.06234567901234565,6.234567901234565,0)" xlink:href="#x"/><use transform="matrix(0.06234567901234565,0,0,0.06234567901234565,21.19753086419752,0)" xlink:href="#y"/><use transform="matrix(0.06234567901234565,0,0,0.06234567901234565,33.66666666666665,0)" xlink:href="#n"/><use transform="matrix(0.06234567901234565,0,0,0.06234567901234565,38.591975308641956,0)" xlink:href="#z"/><use transform="matrix(0.06234567901234565,0,0,0.06234567901234565,51.06111111111109,0)" xlink:href="#z"/><use transform="matrix(0.06234567901234565,0,0,0.06234567901234565,63.53024691358022,0)" xlink:href="#n"/><use transform="matrix(0.06234567901234565,0,0,0.06234567901234565,68.45555555555553,0)" xlink:href="#o"/><use transform="matrix(0.06234567901234565,0,0,0.06234567901234565,80.92469135802466,0)" xlink:href="#A"/><use transform="matrix(0.06234567901234565,0,0,0.06234567901234565,93.39382716049379,0)" xlink:href="#x"/><use transform="matrix(0.06234567901234565,0,0,0.06234567901234565,108.35679012345675,0)" xlink:href="#q"/><use transform="matrix(0.06234567901234565,0,0,0.06234567901234565,120.82592592592587,0)" xlink:href="#r"/><use transform="matrix(0.06234567901234565,0,0,0.06234567901234565,128.245061728395,0)" xlink:href="#B"/><use transform="matrix(0.06234567901234565,0,0,0.06234567901234565,139.46728395061723,0)" xlink:href="#n"/><use transform="matrix(0.06234567901234565,0,0,0.06234567901234565,144.39259259259254,0)" xlink:href="#u"/><use transform="matrix(0.06234567901234565,0,0,0.06234567901234565,155.61481481481476,0)" xlink:href="#q"/></g><path fill="#333" d="M118-107v75H92v-75H18v-26h74v-75h26v75h74v26h-74" id="C"/><use transform="matrix(0.06172839506172839,0,0,0.06172839506172839,0,0)" xlink:href="#C" id="c"/><path fill="#333" d="M212-179c-10-28-35-45-73-45-59 0-87 40-87 99 0 60 29 101 89 101 43 0 62-24 78-52l27 14C228-24 195 4 139 4 59 4 22-46 18-125c-6-104 99-153 187-111 19 9 31 26 39 46" id="D"/><path fill="#333" d="M24 0v-261h32V0H24" id="E"/><path fill="#333" d="M84 4C-5 8 30-112 23-190h32v120c0 31 7 50 39 49 72-2 45-101 50-169h31l1 190h-30c-1-10 1-25-2-33-11 22-28 36-60 37" id="F"/><path fill="#333" d="M30-248c87 1 191-15 191 75 0 78-77 80-158 76V0H30v-248zm33 125c57 0 124 11 124-50 0-59-68-47-124-48v98" id="G"/><path fill="#333" d="M87 75C49 33 22-17 22-94c0-76 28-126 65-167h31c-38 41-64 92-64 168S80 34 118 75H87" id="H"/><path fill="#333" d="M140-251c81 0 123 46 123 126C263-53 228-8 163 1c7 30 30 48 69 40v23c-55 16-95-15-103-61C56-3 17-48 17-125c0-80 42-126 123-126zm0 227c63 0 89-41 89-101s-29-99-89-99c-61 0-89 39-89 99S79-25 140-24" id="I"/><path fill="#333" d="M179-190L93 31C79 59 56 82 12 73V49c39 6 53-20 64-50L1-190h34L92-34l54-156h33" id="J"/><path fill="#333" d="M33-261c38 41 65 92 65 168S71 34 33 75H2C39 34 66-17 66-93S39-220 2-261h31" id="K"/><path fill="#333" d="M33-154v-36h34v36H33zM33 0v-36h34V0H33" id="L"/><g id="d"><use transform="matrix(0.06172839506172839,0,0,0.06172839506172839,0,0)" xlink:href="#D"/><use transform="matrix(0.06172839506172839,0,0,0.06172839506172839,15.987654320987653,0)" xlink:href="#t"/><use transform="matrix(0.06172839506172839,0,0,0.06172839506172839,28.333333333333332,0)" xlink:href="#E"/><use transform="matrix(0.06172839506172839,0,0,0.06172839506172839,33.20987654320987,0)" xlink:href="#u"/><use transform="matrix(0.06172839506172839,0,0,0.06172839506172839,44.32098765432099,0)" xlink:href="#F"/><use transform="matrix(0.06172839506172839,0,0,0.06172839506172839,56.666666666666664,0)" xlink:href="#E"/><use transform="matrix(0.06172839506172839,0,0,0.06172839506172839,61.54320987654321,0)" xlink:href="#t"/><use transform="matrix(0.06172839506172839,0,0,0.06172839506172839,73.88888888888889,0)" xlink:href="#p"/><use transform="matrix(0.06172839506172839,0,0,0.06172839506172839,80.06172839506172,0)" xlink:href="#q"/><use transform="matrix(0.06172839506172839,0,0,0.06172839506172839,92.4074074074074,0)" xlink:href="#G"/><use transform="matrix(0.06172839506172839,0,0,0.06172839506172839,107.22222222222221,0)" xlink:href="#r"/><use transform="matrix(0.06172839506172839,0,0,0.06172839506172839,114.5679012345679,0)" xlink:href="#n"/><use transform="matrix(0.06172839506172839,0,0,0.06172839506172839,119.44444444444444,0)" xlink:href="#u"/><use transform="matrix(0.06172839506172839,0,0,0.06172839506172839,130.55555555555554,0)" xlink:href="#n"/><use transform="matrix(0.06172839506172839,0,0,0.06172839506172839,135.43209876543207,0)" xlink:href="#o"/><use transform="matrix(0.06172839506172839,0,0,0.06172839506172839,147.77777777777774,0)" xlink:href="#A"/><use transform="matrix(0.06172839506172839,0,0,0.06172839506172839,160.1234567901234,0)" xlink:href="#H"/><use transform="matrix(0.06172839506172839,0,0,0.06172839506172839,167.46913580246908,0)" xlink:href="#I"/><use transform="matrix(0.06172839506172839,0,0,0.06172839506172839,184.75308641975303,0)" xlink:href="#F"/><use transform="matrix(0.06172839506172839,0,0,0.06172839506172839,197.0987654320987,0)" xlink:href="#q"/><use transform="matrix(0.06172839506172839,0,0,0.06172839506172839,209.44444444444437,0)" xlink:href="#r"/><use transform="matrix(0.06172839506172839,0,0,0.06172839506172839,216.79012345679004,0)" xlink:href="#J"/><use transform="matrix(0.06172839506172839,0,0,0.06172839506172839,227.90123456790116,0)" xlink:href="#K"/><use transform="matrix(0.06172839506172839,0,0,0.06172839506172839,235.24691358024683,0)" xlink:href="#L"/></g><path fill="#333" d="M233-177c-1 41-23 64-60 70L243 0h-38l-65-103H63V0H30v-248c88 3 205-21 203 71zM63-129c60-2 137 13 137-47 0-61-80-42-137-45v92" id="M"/><path fill="#333" d="M135-143c-3-34-86-38-87 0 15 53 115 12 119 90S17 21 10-45l28-5c4 36 97 45 98 0-10-56-113-15-118-90-4-57 82-63 122-42 12 7 21 19 24 35" id="N"/><g id="e"><use transform="matrix(0.06172839506172839,0,0,0.06172839506172839,0,0)" xlink:href="#M"/><use transform="matrix(0.06172839506172839,0,0,0.06172839506172839,15.987654320987653,0)" xlink:href="#q"/><use transform="matrix(0.06172839506172839,0,0,0.06172839506172839,28.333333333333332,0)" xlink:href="#N"/><use transform="matrix(0.06172839506172839,0,0,0.06172839506172839,39.44444444444444,0)" xlink:href="#F"/><use transform="matrix(0.06172839506172839,0,0,0.06172839506172839,51.79012345679012,0)" xlink:href="#E"/><use transform="matrix(0.06172839506172839,0,0,0.06172839506172839,56.666666666666664,0)" xlink:href="#p"/></g><path fill="#333" d="M63-220v92h138v28H63V0H30v-248h175v28H63" id="O"/><path fill="#333" d="M100-194c62-1 85 37 85 99 1 63-27 99-86 99S16-35 15-95c0-66 28-99 85-99zM99-20c44 1 53-31 53-75 0-43-8-75-51-75s-53 32-53 75 10 74 51 75" id="P"/><g id="f"><use transform="matrix(0.06234567901234565,0,0,0.06234567901234565,0,0)" xlink:href="#w"/><use transform="matrix(0.06234567901234565,0,0,0.06234567901234565,6.234567901234565,0)" xlink:href="#x"/><use transform="matrix(0.06234567901234565,0,0,0.06234567901234565,21.19753086419752,0)" xlink:href="#y"/><use transform="matrix(0.06234567901234565,0,0,0.06234567901234565,33.66666666666665,0)" xlink:href="#n"/><use transform="matrix(0.06234567901234565,0,0,0.06234567901234565,38.591975308641956,0)" xlink:href="#z"/><use transform="matrix(0.06234567901234565,0,0,0.06234567901234565,51.06111111111109,0)" xlink:href="#z"/><use transform="matrix(0.06234567901234565,0,0,0.06234567901234565,63.53024691358022,0)" xlink:href="#n"/><use transform="matrix(0.06234567901234565,0,0,0.06234567901234565,68.45555555555553,0)" xlink:href="#o"/><use transform="matrix(0.06234567901234565,0,0,0.06234567901234565,80.92469135802466,0)" xlink:href="#A"/><use transform="matrix(0.06234567901234565,0,0,0.06234567901234565,93.39382716049379,0)" xlink:href="#x"/><use transform="matrix(0.06234567901234565,0,0,0.06234567901234565,108.35679012345675,0)" xlink:href="#p"/><use transform="matrix(0.06234567901234565,0,0,0.06234567901234565,114.59135802469132,0)" xlink:href="#r"/><use transform="matrix(0.06234567901234565,0,0,0.06234567901234565,122.01049382716045,0)" xlink:href="#t"/><use transform="matrix(0.06234567901234565,0,0,0.06234567901234565,134.47962962962958,0)" xlink:href="#p"/><use transform="matrix(0.06234567901234565,0,0,0.06234567901234565,140.71419753086414,0)" xlink:href="#q"/><use transform="matrix(0.06234567901234565,0,0,0.06234567901234565,153.18333333333328,0)" xlink:href="#A"/><use transform="matrix(0.06234567901234565,0,0,0.06234567901234565,165.65246913580242,0)" xlink:href="#J"/><use transform="matrix(0.06234567901234565,0,0,0.06234567901234565,176.87469135802465,0)" xlink:href="#O"/><use transform="matrix(0.06234567901234565,0,0,0.06234567901234565,190.52839506172836,0)" xlink:href="#t"/><use transform="matrix(0.06234567901234565,0,0,0.06234567901234565,202.9975308641975,0)" xlink:href="#u"/><use transform="matrix(0.06234567901234565,0,0,0.06234567901234565,214.21975308641973,0)" xlink:href="#p"/><use transform="matrix(0.06234567901234565,0,0,0.06234567901234565,220.45432098765428,0)" xlink:href="#P"/><use transform="matrix(0.06234567901234565,0,0,0.06234567901234565,232.92345679012342,0)" xlink:href="#r"/><use transform="matrix(0.06234567901234565,0,0,0.06234567901234565,240.34259259259255,0)" xlink:href="#J"/></g><use transform="matrix(0.06172839506172839,0,0,0.06172839506172839,0,0)" xlink:href="#C" id="g"/><path fill="#333" d="M140-251c81 0 123 46 123 126C263-46 219 4 140 4 59 4 17-45 17-125s42-126 123-126zm0 227c63 0 89-41 89-101s-29-99-89-99c-61 0-89 39-89 99S79-25 140-24" id="Q"/><g id="h"><use transform="matrix(0.06172839506172839,0,0,0.06172839506172839,0,0)" xlink:href="#D"/><use transform="matrix(0.06172839506172839,0,0,0.06172839506172839,15.987654320987653,0)" xlink:href="#r"/><use transform="matrix(0.06172839506172839,0,0,0.06172839506172839,23.333333333333332,0)" xlink:href="#q"/><use transform="matrix(0.06172839506172839,0,0,0.06172839506172839,35.67901234567901,0)" xlink:href="#t"/><use transform="matrix(0.06172839506172839,0,0,0.06172839506172839,48.02469135802469,0)" xlink:href="#p"/><use transform="matrix(0.06172839506172839,0,0,0.06172839506172839,54.19753086419753,0)" xlink:href="#q"/><use transform="matrix(0.06172839506172839,0,0,0.06172839506172839,66.54320987654322,0)" xlink:href="#H"/><use transform="matrix(0.06172839506172839,0,0,0.06172839506172839,73.8888888888889,0)" xlink:href="#Q"/><use transform="matrix(0.06172839506172839,0,0,0.06172839506172839,91.17283950617285,0)" xlink:href="#z"/><use transform="matrix(0.06172839506172839,0,0,0.06172839506172839,103.51851851851853,0)" xlink:href="#p"/><use transform="matrix(0.06172839506172839,0,0,0.06172839506172839,109.69135802469137,0)" xlink:href="#n"/><use transform="matrix(0.06172839506172839,0,0,0.06172839506172839,114.56790123456791,0)" xlink:href="#P"/><use transform="matrix(0.06172839506172839,0,0,0.06172839506172839,126.9135802469136,0)" xlink:href="#o"/><use transform="matrix(0.06172839506172839,0,0,0.06172839506172839,139.25925925925927,0)" xlink:href="#N"/><use transform="matrix(0.06172839506172839,0,0,0.06172839506172839,150.37037037037038,0)" xlink:href="#K"/><use transform="matrix(0.06172839506172839,0,0,0.06172839506172839,157.71604938271605,0)" xlink:href="#L"/></g><g id="i"><use transform="matrix(0.06172839506172839,0,0,0.06172839506172839,0,0)" xlink:href="#w"/><use transform="matrix(0.06172839506172839,0,0,0.06172839506172839,6.172839506172839,0)" xlink:href="#x"/><use transform="matrix(0.06172839506172839,0,0,0.06172839506172839,20.98765432098765,0)" xlink:href="#y"/><use transform="matrix(0.06172839506172839,0,0,0.06172839506172839,33.33333333333333,0)" xlink:href="#n"/><use transform="matrix(0.06172839506172839,0,0,0.06172839506172839,38.20987654320987,0)" xlink:href="#z"/><use transform="matrix(0.06172839506172839,0,0,0.06172839506172839,50.55555555555555,0)" xlink:href="#z"/><use transform="matrix(0.06172839506172839,0,0,0.06172839506172839,62.90123456790123,0)" xlink:href="#n"/><use transform="matrix(0.06172839506172839,0,0,0.06172839506172839,67.77777777777777,0)" xlink:href="#o"/><use transform="matrix(0.06172839506172839,0,0,0.06172839506172839,80.12345679012346,0)" xlink:href="#A"/><use transform="matrix(0.06172839506172839,0,0,0.06172839506172839,92.46913580246914,0)" xlink:href="#x"/><use transform="matrix(0.06172839506172839,0,0,0.06172839506172839,107.28395061728395,0)" xlink:href="#q"/><use transform="matrix(0.06172839506172839,0,0,0.06172839506172839,119.62962962962963,0)" xlink:href="#r"/><use transform="matrix(0.06172839506172839,0,0,0.06172839506172839,126.97530864197533,0)" xlink:href="#B"/><use transform="matrix(0.06172839506172839,0,0,0.06172839506172839,138.08641975308643,0)" xlink:href="#n"/><use transform="matrix(0.06172839506172839,0,0,0.06172839506172839,142.96296296296296,0)" xlink:href="#u"/><use transform="matrix(0.06172839506172839,0,0,0.06172839506172839,154.07407407407408,0)" xlink:href="#q"/></g><path fill="#333" d="M30-248c118-7 216 8 213 122C240-48 200 0 122 0H30v-248zM63-27c89 8 146-16 146-99s-60-101-146-95v194" id="R"/><g id="j"><use transform="matrix(0.06234567901234565,0,0,0.06234567901234565,0,0)" xlink:href="#R"/><use transform="matrix(0.06234567901234565,0,0,0.06234567901234565,16.147530864197524,0)" xlink:href="#y"/><use transform="matrix(0.06234567901234565,0,0,0.06234567901234565,28.616666666666653,0)" xlink:href="#E"/><use transform="matrix(0.06234567901234565,0,0,0.06234567901234565,33.54197530864196,0)" xlink:href="#x"/><use transform="matrix(0.06234567901234565,0,0,0.06234567901234565,48.504938271604914,0)" xlink:href="#y"/><use transform="matrix(0.06234567901234565,0,0,0.06234567901234565,60.974074074074046,0)" xlink:href="#n"/><use transform="matrix(0.06234567901234565,0,0,0.06234567901234565,65.89938271604936,0)" xlink:href="#z"/><use transform="matrix(0.06234567901234565,0,0,0.06234567901234565,78.36851851851848,0)" xlink:href="#z"/><use transform="matrix(0.06234567901234565,0,0,0.06234567901234565,90.83765432098761,0)" xlink:href="#n"/><use transform="matrix(0.06234567901234565,0,0,0.06234567901234565,95.76296296296292,0)" xlink:href="#o"/><use transform="matrix(0.06234567901234565,0,0,0.06234567901234565,108.23209876543204,0)" xlink:href="#A"/><use transform="matrix(0.06234567901234565,0,0,0.06234567901234565,120.70123456790117,0)" xlink:href="#x"/><use transform="matrix(0.06234567901234565,0,0,0.06234567901234565,135.66419753086413,0)" xlink:href="#p"/><use transform="matrix(0.06234567901234565,0,0,0.06234567901234565,141.89876543209868,0)" xlink:href="#r"/><use transform="matrix(0.06234567901234565,0,0,0.06234567901234565,149.3179012345678,0)" xlink:href="#t"/><use transform="matrix(0.06234567901234565,0,0,0.06234567901234565,161.78703703703695,0)" xlink:href="#p"/><use transform="matrix(0.06234567901234565,0,0,0.06234567901234565,168.0216049382715,0)" xlink:href="#q"/><use transform="matrix(0.06234567901234565,0,0,0.06234567901234565,180.49074074074065,0)" xlink:href="#A"/><use transform="matrix(0.06234567901234565,0,0,0.06234567901234565,192.9598765432098,0)" xlink:href="#J"/></g><path fill="#333" d="M85-194c31 0 48 13 60 33l-1-100h32l1 261h-30c-2-10 0-23-3-31C134-8 116 4 85 4 32 4 16-35 15-94c0-66 23-100 70-100zm9 24c-40 0-46 34-46 75 0 40 6 74 45 74 42 0 51-32 51-76 0-42-9-74-50-73" id="S"/><path fill="#333" d="M141 0L90-78 38 0H4l68-98-65-92h35l48 74 47-74h35l-64 92 68 98h-35" id="T"/><g id="k"><use transform="matrix(0.06234567901234565,0,0,0.06234567901234565,0,0)" xlink:href="#O"/><use transform="matrix(0.06234567901234565,0,0,0.06234567901234565,13.653703703703698,0)" xlink:href="#q"/><use transform="matrix(0.06234567901234565,0,0,0.06234567901234565,26.12283950617283,0)" xlink:href="#S"/><use transform="matrix(0.06234567901234565,0,0,0.06234567901234565,38.59197530864196,0)" xlink:href="#q"/><use transform="matrix(0.06234567901234565,0,0,0.06234567901234565,51.061111111111096,0)" xlink:href="#T"/><use transform="matrix(0.06234567901234565,0,0,0.06234567901234565,62.28333333333332,0)" xlink:href="#x"/><use transform="matrix(0.06234567901234565,0,0,0.06234567901234565,77.24629629629628,0)" xlink:href="#y"/><use transform="matrix(0.06234567901234565,0,0,0.06234567901234565,89.7154320987654,0)" xlink:href="#n"/><use transform="matrix(0.06234567901234565,0,0,0.06234567901234565,94.64074074074071,0)" xlink:href="#z"/><use transform="matrix(0.06234567901234565,0,0,0.06234567901234565,107.10987654320984,0)" xlink:href="#z"/><use transform="matrix(0.06234567901234565,0,0,0.06234567901234565,119.57901234567896,0)" xlink:href="#n"/><use transform="matrix(0.06234567901234565,0,0,0.06234567901234565,124.50432098765427,0)" xlink:href="#o"/><use transform="matrix(0.06234567901234565,0,0,0.06234567901234565,136.9734567901234,0)" xlink:href="#A"/><use transform="matrix(0.06234567901234565,0,0,0.06234567901234565,149.44259259259255,0)" xlink:href="#x"/><use transform="matrix(0.06234567901234565,0,0,0.06234567901234565,164.4055555555555,0)" xlink:href="#p"/><use transform="matrix(0.06234567901234565,0,0,0.06234567901234565,170.64012345679006,0)" xlink:href="#r"/><use transform="matrix(0.06234567901234565,0,0,0.06234567901234565,178.0592592592592,0)" xlink:href="#t"/><use transform="matrix(0.06234567901234565,0,0,0.06234567901234565,190.52839506172833,0)" xlink:href="#p"/><use transform="matrix(0.06234567901234565,0,0,0.06234567901234565,196.7629629629629,0)" xlink:href="#q"/><use transform="matrix(0.06234567901234565,0,0,0.06234567901234565,209.23209876543203,0)" xlink:href="#A"/><use transform="matrix(0.06234567901234565,0,0,0.06234567901234565,221.70123456790117,0)" xlink:href="#J"/></g><path fill="#333" d="M232-93c-1 65-40 97-104 97C67 4 28-28 28-90v-158h33c8 89-33 224 67 224 102 0 64-133 71-224h33v155" id="U"/><g id="l"><use transform="matrix(0.06234567901234565,0,0,0.06234567901234565,0,0)" xlink:href="#U"/><use transform="matrix(0.06234567901234565,0,0,0.06234567901234565,16.147530864197524,0)" xlink:href="#z"/><use transform="matrix(0.06234567901234565,0,0,0.06234567901234565,28.616666666666653,0)" xlink:href="#N"/><use transform="matrix(0.06234567901234565,0,0,0.06234567901234565,39.838888888888874,0)" xlink:href="#x"/><use transform="matrix(0.06234567901234565,0,0,0.06234567901234565,54.80185185185183,0)" xlink:href="#y"/><use transform="matrix(0.06234567901234565,0,0,0.06234567901234565,67.27098765432096,0)" xlink:href="#n"/><use transform="matrix(0.06234567901234565,0,0,0.06234567901234565,72.19629629629627,0)" xlink:href="#z"/><use transform="matrix(0.06234567901234565,0,0,0.06234567901234565,84.6654320987654,0)" xlink:href="#z"/><use transform="matrix(0.06234567901234565,0,0,0.06234567901234565,97.13456790123452,0)" xlink:href="#n"/><use transform="matrix(0.06234567901234565,0,0,0.06234567901234565,102.05987654320982,0)" xlink:href="#o"/><use transform="matrix(0.06234567901234565,0,0,0.06234567901234565,114.52901234567895,0)" xlink:href="#A"/><use transform="matrix(0.06234567901234565,0,0,0.06234567901234565,126.99814814814808,0)" xlink:href="#x"/><use transform="matrix(0.06234567901234565,0,0,0.06234567901234565,141.96111111111102,0)" xlink:href="#p"/><use transform="matrix(0.06234567901234565,0,0,0.06234567901234565,148.19567901234558,0)" xlink:href="#r"/><use transform="matrix(0.06234567901234565,0,0,0.06234567901234565,155.6148148148147,0)" xlink:href="#t"/><use transform="matrix(0.06234567901234565,0,0,0.06234567901234565,168.08395061728385,0)" xlink:href="#p"/><use transform="matrix(0.06234567901234565,0,0,0.06234567901234565,174.3185185185184,0)" xlink:href="#q"/><use transform="matrix(0.06234567901234565,0,0,0.06234567901234565,186.78765432098754,0)" xlink:href="#A"/><use transform="matrix(0.06234567901234565,0,0,0.06234567901234565,199.25679012345668,0)" xlink:href="#J"/></g></defs></g></svg>