<svg xmlns="http://www.w3.org/2000/svg" xmlns:xlink="http://www.w3.org/1999/xlink" xmlns:lucid="lucid" width="1582" height="422"><g transform="translate(-39 -619)" lucid:page-tab-id="0_0"><path d="M0 0h3677.73v2581.67H0z" fill="#fff"/><path d="M60 779.5c0-3.3 2.7-6 6-6h428c3.3 0 6 2.7 6 6v101c0 3.3-2.7 6-6 6H66c-3.3 0-6-2.7-6-6z" stroke="#5e5e5e" stroke-width="2" fill="#ffc374"/><path d="M60 843.37h440" stroke="#5e5e5e" stroke-width="2" fill="none"/><use xlink:href="#a" transform="matrix(1,0,0,1,68,781.5) translate(142.85864197530867 18.022222222222226)"/><use xlink:href="#b" transform="matrix(1,0,0,1,68,781.5) translate(98.68672839506176 44.95555555555555)"/><use xlink:href="#c" transform="matrix(1,0,0,1,72,851.3666666666667) translate(0 17.944444444444443)"/><use xlink:href="#d" transform="matrix(1,0,0,1,72,851.3666666666667) translate(19.1358024691358 17.944444444444443)"/><use xlink:href="#e" transform="matrix(1,0,0,1,72,851.3666666666667) translate(142.46913580246914 17.944444444444443)"/><path d="M620 646c0-3.3 2.7-6 6-6h428c3.3 0 6 2.7 6 6v88c0 3.3-2.7 6-6 6H626c-3.3 0-6-2.7-6-6z" stroke="#5e5e5e" stroke-width="2" fill="#ffc374"/><path d="M620 682.93h440" stroke="#5e5e5e" stroke-width="2" fill="none"/><use xlink:href="#f" transform="matrix(1,0,0,1,627.9999999999999,648) translate(32.10154320987658 17.988888888888887)"/><use xlink:href="#c" transform="matrix(1,0,0,1,631.9999999999999,690.9333333333333) translate(0 24.944444444444443)"/><use xlink:href="#d" transform="matrix(1,0,0,1,631.9999999999999,690.9333333333333) translate(19.1358024691358 24.944444444444443)"/><use xlink:href="#e" transform="matrix(1,0,0,1,631.9999999999999,690.9333333333333) translate(142.46913580246914 24.944444444444443)"/><path d="M620 786c0-3.3 2.7-6 6-6h428c3.3 0 6 2.7 6 6v88c0 3.3-2.7 6-6 6H626c-3.3 0-6-2.7-6-6z" stroke="#5e5e5e" stroke-width="2" fill="#ffc374"/><path d="M620 822.93h440" stroke="#5e5e5e" stroke-width="2" fill="none"/><use xlink:href="#g" transform="matrix(1,0,0,1,627.9999999999999,788) translate(55.54351851851854 17.988888888888887)"/><use xlink:href="#c" transform="matrix(1,0,0,1,631.9999999999999,830.9333333333333) translate(0 24.944444444444443)"/><use xlink:href="#d" transform="matrix(1,0,0,1,631.9999999999999,830.9333333333333) translate(19.1358024691358 24.944444444444443)"/><use xlink:href="#e" transform="matrix(1,0,0,1,631.9999999999999,830.9333333333333) translate(142.46913580246914 24.944444444444443)"/><path d="M620 926c0-3.3 2.7-6 6-6h428c3.3 0 6 2.7 6 6v88c0 3.3-2.7 6-6 6H626c-3.3 0-6-2.7-6-6z" stroke="#5e5e5e" stroke-width="2" fill="#ffc374"/><path d="M620 962.93h440" stroke="#5e5e5e" stroke-width="2" fill="none"/><use xlink:href="#h" transform="matrix(1,0,0,1,627.9999999999999,928) translate(37.089197530864254 17.988888888888887)"/><use xlink:href="#c" transform="matrix(1,0,0,1,631.9999999999999,970.9333333333333) translate(0 24.944444444444443)"/><use xlink:href="#d" transform="matrix(1,0,0,1,631.9999999999999,970.9333333333333) translate(19.1358024691358 24.944444444444443)"/><use xlink:href="#e" transform="matrix(1,0,0,1,631.9999999999999,970.9333333333333) translate(142.46913580246914 24.944444444444443)"/><path d="M618 830h-10.94m-10.95 0h-21.88m-10.94 0h-21.9m-10.93 0H519.5" stroke="#333" stroke-width="2" fill="none"/><path d="M619 831h-1.03v-2H619" fill="#333"/><path d="M504.24 830l14.26-4.64v9.28z" stroke="#333" stroke-width="2" fill="#fff"/><path d="M618 690h-8.67m-8.66 0h-17.34m-8.66 0H566l-3.03.82-2.15 2.15L560 696v10.67m0 10.66v21.34m0 10.66v21.34m0 10.66v21.34m0 10.66V824l-.82 3.03-2.15 2.15-3.03.82h-11.5m-11.5 0h-11.5" stroke="#333" stroke-width="2" fill="none"/><path d="M619 691h-1.03v-2H619" fill="#333"/><path d="M504.24 830l14.26-4.64v9.28z" stroke="#333" stroke-width="2" fill="#fff"/><path d="M618 970h-8.67m-8.66 0h-17.34m-8.66 0H566l-3.03-.82-2.15-2.15L560 964v-10.67m0-10.66v-21.34m0-10.66v-21.34m0-10.66v-21.34m0-10.66V836l-.82-3.03-2.15-2.15L554 830h-11.5m-11.5 0h-11.5" stroke="#333" stroke-width="2" fill="none"/><path d="M619 971h-1.03v-2H619" fill="#333"/><path d="M504.24 830l14.26-4.64v9.28z" stroke="#333" stroke-width="2" fill="#fff"/><path d="M1140 646c0-3.3 2.7-6 6-6h448c3.3 0 6 2.7 6 6v88c0 3.3-2.7 6-6 6h-448c-3.3 0-6-2.7-6-6z" stroke="#5e5e5e" stroke-width="2" fill="#ffc374"/><path d="M1140 682.93h460" stroke="#5e5e5e" stroke-width="2" fill="none"/><use xlink:href="#i" transform="matrix(1,0,0,1,1148,648) translate(40.200000000000074 17.988888888888887)"/><use xlink:href="#c" transform="matrix(1,0,0,1,1152,690.9333333333333) translate(0 25.444444444444443)"/><use xlink:href="#j" transform="matrix(1,0,0,1,1152,690.9333333333333) translate(19.1358024691358 25.444444444444443)"/><use xlink:href="#e" transform="matrix(1,0,0,1,1152,690.9333333333333) translate(120.18518518518518 25.444444444444443)"/><path d="M1140 784.42c0-3.32 2.7-6 6-6h448c3.3 0 6 2.68 6 6v88c0 3.3-2.7 6-6 6h-448c-3.3 0-6-2.7-6-6z" stroke="#5e5e5e" stroke-width="2" fill="#ffc374"/><path d="M1140 821.35h460" stroke="#5e5e5e" stroke-width="2" fill="none"/><use xlink:href="#k" transform="matrix(1,0,0,1,1148,786.4173228346456) translate(63.64197530864203 17.988888888888887)"/><use xlink:href="#c" transform="matrix(1,0,0,1,1152,829.3506561679789) translate(0 24.944444444444443)"/><use xlink:href="#j" transform="matrix(1,0,0,1,1152,829.3506561679789) translate(19.1358024691358 24.944444444444443)"/><use xlink:href="#e" transform="matrix(1,0,0,1,1152,829.3506561679789) translate(120.18518518518518 24.944444444444443)"/><path d="M1140 926c0-3.3 2.7-6 6-6h448c3.3 0 6 2.7 6 6v88c0 3.3-2.7 6-6 6h-448c-3.3 0-6-2.7-6-6z" stroke="#5e5e5e" stroke-width="2" fill="#ffc374"/><path d="M1140 962.93h460" stroke="#5e5e5e" stroke-width="2" fill="none"/><g><use xlink:href="#l" transform="matrix(1,0,0,1,1148,928) translate(45.18765432098775 17.988888888888887)"/></g><g><use xlink:href="#c" transform="matrix(1,0,0,1,1152,970.9333333333333) translate(0 24.944444444444443)"/><use xlink:href="#m" transform="matrix(1,0,0,1,1152,970.9333333333333) translate(19.1358024691358 24.944444444444443)"/><use xlink:href="#e" transform="matrix(1,0,0,1,1152,970.9333333333333) translate(155.8641975308642 24.944444444444443)"/></g><path d="M1062 690h8.35m8.36 0h16.7m8.37 0h16.7m8.36 0h8.35" stroke="#333" stroke-width="2" fill="none"/><path d="M1062.03 691H1061v-2h1.03" fill="#333"/><path d="M1119.82 700.18l17.22-10.18-17.22-10.18M1062 830h8.35m8.36 0h16.7m8.37 0h16.7m8.36 0h8.35" stroke="#333" stroke-width="2" fill="none"/><path d="M1062.03 831H1061v-2h1.03" fill="#333"/><path d="M1119.82 840.18l17.22-10.18-17.22-10.18M1062 970h8.35m8.36 0h16.7m8.37 0h16.7m8.36 0h8.35" stroke="#333" stroke-width="2" fill="none"/><path d="M1062.03 971H1061v-2h1.03" fill="#333"/><path d="M1119.82 980.18l17.22-10.18-17.22-10.18" stroke="#333" stroke-width="2" fill="none"/><defs><path fill="#333" d="M18-100v-36l175-74v27L42-118l151 64v27" id="n"/><path fill="#333" d="M24-231v-30h32v30H24zM24 0v-190h32V0H24" id="o"/><path fill="#333" d="M117-194c89-4 53 116 60 194h-32v-121c0-31-8-49-39-48C34-167 62-67 57 0H25l-1-190h30c1 10-1 24 2 32 11-22 29-35 61-36" id="p"/><path fill="#333" d="M59-47c-2 24 18 29 38 22v24C64 9 27 4 27-40v-127H5v-23h24l9-43h21v43h35v23H59v120" id="q"/><path fill="#333" d="M100-194c63 0 86 42 84 106H49c0 40 14 67 53 68 26 1 43-12 49-29l28 8c-11 28-37 45-77 45C44 4 14-33 15-96c1-61 26-98 85-98zm52 81c6-60-76-77-97-28-3 7-6 17-6 28h103" id="r"/><path fill="#333" d="M114-163C36-179 61-72 57 0H25l-1-190h30c1 12-1 29 2 39 6-27 23-49 58-41v29" id="s"/><path fill="#333" d="M101-234c-31-9-42 10-38 44h38v23H63V0H32v-167H5v-23h27c-7-52 17-82 69-68v24" id="t"/><path fill="#333" d="M141-36C126-15 110 5 73 4 37 3 15-17 15-53c-1-64 63-63 125-63 3-35-9-54-41-54-24 1-41 7-42 31l-33-3c5-37 33-52 76-52 45 0 72 20 72 64v82c-1 20 7 32 28 27v20c-31 9-61-2-59-35zM48-53c0 20 12 33 32 33 41-3 63-29 60-74-43 2-92-5-92 41" id="u"/><path fill="#333" d="M96-169c-40 0-48 33-48 73s9 75 48 75c24 0 41-14 43-38l32 2c-6 37-31 61-74 61-59 0-76-41-82-99-10-93 101-131 147-64 4 7 5 14 7 22l-32 3c-4-21-16-35-41-35" id="v"/><path fill="#333" d="M18-27v-27l151-64-151-65v-27l175 74v36" id="w"/><g id="a"><use transform="matrix(0.06234567901234565,0,0,0.06234567901234565,0,0)" xlink:href="#n"/><use transform="matrix(0.06234567901234565,0,0,0.06234567901234565,13.092592592592586,0)" xlink:href="#n"/><use transform="matrix(0.06234567901234565,0,0,0.06234567901234565,26.185185185185173,0)" xlink:href="#o"/><use transform="matrix(0.06234567901234565,0,0,0.06234567901234565,31.11049382716048,0)" xlink:href="#p"/><use transform="matrix(0.06234567901234565,0,0,0.06234567901234565,43.57962962962961,0)" xlink:href="#q"/><use transform="matrix(0.06234567901234565,0,0,0.06234567901234565,49.81419753086417,0)" xlink:href="#r"/><use transform="matrix(0.06234567901234565,0,0,0.06234567901234565,62.2833333333333,0)" xlink:href="#s"/><use transform="matrix(0.06234567901234565,0,0,0.06234567901234565,69.70246913580243,0)" xlink:href="#t"/><use transform="matrix(0.06234567901234565,0,0,0.06234567901234565,75.937037037037,0)" xlink:href="#u"/><use transform="matrix(0.06234567901234565,0,0,0.06234567901234565,88.40617283950613,0)" xlink:href="#v"/><use transform="matrix(0.06234567901234565,0,0,0.06234567901234565,99.62839506172834,0)" xlink:href="#r"/><use transform="matrix(0.06234567901234565,0,0,0.06234567901234565,112.09753086419747,0)" xlink:href="#w"/><use transform="matrix(0.06234567901234565,0,0,0.06234567901234565,125.19012345679005,0)" xlink:href="#w"/></g><path fill="#333" d="M33 0v-248h34V0H33" id="x"/><path fill="#333" d="M143 4C61 4 22-44 18-125c-5-107 100-154 193-111 17 8 29 25 37 43l-32 9c-13-25-37-40-76-40-61 0-88 39-88 99 0 61 29 100 91 101 35 0 62-11 79-27v-45h-74v-28h105v86C228-13 192 4 143 4" id="y"/><path fill="#333" d="M212-179c-10-28-35-45-73-45-59 0-87 40-87 99 0 60 29 101 89 101 43 0 62-24 78-52l27 14C228-24 195 4 139 4 59 4 22-46 18-125c-6-104 99-153 187-111 19 9 31 26 39 46" id="z"/><path fill="#333" d="M106-169C34-169 62-67 57 0H25v-261h32l-1 103c12-21 28-36 61-36 89 0 53 116 60 194h-32v-121c2-32-8-49-39-48" id="A"/><path fill="#333" d="M135-143c-3-34-86-38-87 0 15 53 115 12 119 90S17 21 10-45l28-5c4 36 97 45 98 0-10-56-113-15-118-90-4-57 82-63 122-42 12 7 21 19 24 35" id="B"/><path fill="#333" d="M185-189c-5-48-123-54-124 2 14 75 158 14 163 119 3 78-121 87-175 55-17-10-28-26-33-46l33-7c5 56 141 63 141-1 0-78-155-14-162-118-5-82 145-84 179-34 5 7 8 16 11 25" id="C"/><path fill="#333" d="M108 0H70L1-190h34L89-25l56-165h34" id="D"/><g id="b"><use transform="matrix(0.06234567901234565,0,0,0.06234567901234565,0,0)" xlink:href="#x"/><use transform="matrix(0.06234567901234565,0,0,0.06234567901234565,6.234567901234565,0)" xlink:href="#y"/><use transform="matrix(0.06234567901234565,0,0,0.06234567901234565,23.69135802469135,0)" xlink:href="#r"/><use transform="matrix(0.06234567901234565,0,0,0.06234567901234565,36.16049382716048,0)" xlink:href="#q"/><use transform="matrix(0.06234567901234565,0,0,0.06234567901234565,42.39506172839504,0)" xlink:href="#z"/><use transform="matrix(0.06234567901234565,0,0,0.06234567901234565,58.54259259259257,0)" xlink:href="#A"/><use transform="matrix(0.06234567901234565,0,0,0.06234567901234565,71.0117283950617,0)" xlink:href="#u"/><use transform="matrix(0.06234567901234565,0,0,0.06234567901234565,83.48086419753082,0)" xlink:href="#s"/><use transform="matrix(0.06234567901234565,0,0,0.06234567901234565,90.89999999999995,0)" xlink:href="#u"/><use transform="matrix(0.06234567901234565,0,0,0.06234567901234565,103.36913580246907,0)" xlink:href="#v"/><use transform="matrix(0.06234567901234565,0,0,0.06234567901234565,114.59135802469129,0)" xlink:href="#q"/><use transform="matrix(0.06234567901234565,0,0,0.06234567901234565,120.82592592592586,0)" xlink:href="#r"/><use transform="matrix(0.06234567901234565,0,0,0.06234567901234565,133.29506172839498,0)" xlink:href="#s"/><use transform="matrix(0.06234567901234565,0,0,0.06234567901234565,140.7141975308641,0)" xlink:href="#B"/><use transform="matrix(0.06234567901234565,0,0,0.06234567901234565,151.93641975308634,0)" xlink:href="#C"/><use transform="matrix(0.06234567901234565,0,0,0.06234567901234565,166.8993827160493,0)" xlink:href="#r"/><use transform="matrix(0.06234567901234565,0,0,0.06234567901234565,179.36851851851844,0)" xlink:href="#s"/><use transform="matrix(0.06234567901234565,0,0,0.06234567901234565,186.78765432098757,0)" xlink:href="#D"/><use transform="matrix(0.06234567901234565,0,0,0.06234567901234565,198.0098765432098,0)" xlink:href="#o"/><use transform="matrix(0.06234567901234565,0,0,0.06234567901234565,202.9351851851851,0)" xlink:href="#v"/><use transform="matrix(0.06234567901234565,0,0,0.06234567901234565,214.15740740740733,0)" xlink:href="#r"/></g><path fill="#333" d="M118-107v75H92v-75H18v-26h74v-75h26v75h74v26h-74" id="E"/><use transform="matrix(0.06172839506172839,0,0,0.06172839506172839,0,0)" xlink:href="#E" id="c"/><path fill="#333" d="M205 0l-28-72H64L36 0H1l101-248h38L239 0h-34zm-38-99l-47-123c-12 45-31 82-46 123h93" id="F"/><path fill="#333" d="M179-190L93 31C79 59 56 82 12 73V49c39 6 53-20 64-50L1-190h34L92-34l54-156h33" id="G"/><path fill="#333" d="M87 75C49 33 22-17 22-94c0-76 28-126 65-167h31c-38 41-64 92-64 168S80 34 118 75H87" id="H"/><path fill="#333" d="M33-261c38 41 65 92 65 168S71 34 33 75H2C39 34 66-17 66-93S39-220 2-261h31" id="I"/><path fill="#333" d="M33-154v-36h34v36H33zM33 0v-36h34V0H33" id="J"/><g id="d"><use transform="matrix(0.06172839506172839,0,0,0.06172839506172839,0,0)" xlink:href="#y"/><use transform="matrix(0.06172839506172839,0,0,0.06172839506172839,17.28395061728395,0)" xlink:href="#r"/><use transform="matrix(0.06172839506172839,0,0,0.06172839506172839,29.629629629629626,0)" xlink:href="#q"/><use transform="matrix(0.06172839506172839,0,0,0.06172839506172839,35.80246913580247,0)" xlink:href="#F"/><use transform="matrix(0.06172839506172839,0,0,0.06172839506172839,50.61728395061728,0)" xlink:href="#B"/><use transform="matrix(0.06172839506172839,0,0,0.06172839506172839,61.72839506172839,0)" xlink:href="#G"/><use transform="matrix(0.06172839506172839,0,0,0.06172839506172839,72.8395061728395,0)" xlink:href="#p"/><use transform="matrix(0.06172839506172839,0,0,0.06172839506172839,85.18518518518519,0)" xlink:href="#v"/><use transform="matrix(0.06172839506172839,0,0,0.06172839506172839,96.2962962962963,0)" xlink:href="#H"/><use transform="matrix(0.06172839506172839,0,0,0.06172839506172839,103.64197530864199,0)" xlink:href="#I"/><use transform="matrix(0.06172839506172839,0,0,0.06172839506172839,110.98765432098767,0)" xlink:href="#J"/></g><path fill="#333" d="M30 0v-248h33v221h125V0H30" id="K"/><path fill="#333" d="M233-177c-1 41-23 64-60 70L243 0h-38l-65-103H63V0H30v-248c88 3 205-21 203 71zM63-129c60-2 137 13 137-47 0-61-80-42-137-45v92" id="L"/><path fill="#333" d="M84 4C-5 8 30-112 23-190h32v120c0 31 7 50 39 49 72-2 45-101 50-169h31l1 190h-30c-1-10 1-25-2-33-11 22-28 36-60 37" id="M"/><path fill="#333" d="M24 0v-261h32V0H24" id="N"/><g id="e"><use transform="matrix(0.06172839506172839,0,0,0.06172839506172839,0,0)" xlink:href="#K"/><use transform="matrix(0.06172839506172839,0,0,0.06172839506172839,12.345679012345679,0)" xlink:href="#o"/><use transform="matrix(0.06172839506172839,0,0,0.06172839506172839,17.22222222222222,0)" xlink:href="#B"/><use transform="matrix(0.06172839506172839,0,0,0.06172839506172839,28.333333333333332,0)" xlink:href="#q"/><use transform="matrix(0.06172839506172839,0,0,0.06172839506172839,34.50617283950617,0)" xlink:href="#n"/><use transform="matrix(0.06172839506172839,0,0,0.06172839506172839,47.46913580246913,0)" xlink:href="#y"/><use transform="matrix(0.06172839506172839,0,0,0.06172839506172839,64.75308641975309,0)" xlink:href="#r"/><use transform="matrix(0.06172839506172839,0,0,0.06172839506172839,77.09876543209877,0)" xlink:href="#q"/><use transform="matrix(0.06172839506172839,0,0,0.06172839506172839,83.27160493827161,0)" xlink:href="#z"/><use transform="matrix(0.06172839506172839,0,0,0.06172839506172839,99.25925925925927,0)" xlink:href="#A"/><use transform="matrix(0.06172839506172839,0,0,0.06172839506172839,111.60493827160495,0)" xlink:href="#u"/><use transform="matrix(0.06172839506172839,0,0,0.06172839506172839,123.95061728395063,0)" xlink:href="#s"/><use transform="matrix(0.06172839506172839,0,0,0.06172839506172839,131.2962962962963,0)" xlink:href="#u"/><use transform="matrix(0.06172839506172839,0,0,0.06172839506172839,143.64197530864197,0)" xlink:href="#v"/><use transform="matrix(0.06172839506172839,0,0,0.06172839506172839,154.7530864197531,0)" xlink:href="#q"/><use transform="matrix(0.06172839506172839,0,0,0.06172839506172839,160.92592592592592,0)" xlink:href="#r"/><use transform="matrix(0.06172839506172839,0,0,0.06172839506172839,173.2716049382716,0)" xlink:href="#s"/><use transform="matrix(0.06172839506172839,0,0,0.06172839506172839,180.61728395061726,0)" xlink:href="#B"/><use transform="matrix(0.06172839506172839,0,0,0.06172839506172839,191.72839506172838,0)" xlink:href="#L"/><use transform="matrix(0.06172839506172839,0,0,0.06172839506172839,207.71604938271602,0)" xlink:href="#r"/><use transform="matrix(0.06172839506172839,0,0,0.06172839506172839,220.0617283950617,0)" xlink:href="#B"/><use transform="matrix(0.06172839506172839,0,0,0.06172839506172839,231.1728395061728,0)" xlink:href="#M"/><use transform="matrix(0.06172839506172839,0,0,0.06172839506172839,243.51851851851848,0)" xlink:href="#N"/><use transform="matrix(0.06172839506172839,0,0,0.06172839506172839,248.395061728395,0)" xlink:href="#q"/><use transform="matrix(0.06172839506172839,0,0,0.06172839506172839,254.56790123456784,0)" xlink:href="#w"/></g><path fill="#333" d="M143 0L79-87 56-68V0H24v-261h32v163l83-92h37l-77 82L181 0h-38" id="O"/><path fill="#333" d="M85-194c31 0 48 13 60 33l-1-100h32l1 261h-30c-2-10 0-23-3-31C134-8 116 4 85 4 32 4 16-35 15-94c0-66 23-100 70-100zm9 24c-40 0-46 34-46 75 0 40 6 74 45 74 42 0 51-32 51-76 0-42-9-74-50-73" id="P"/><path fill="#333" d="M240 0l2-218c-23 76-54 145-80 218h-23L58-218 59 0H30v-248h44l77 211c21-75 51-140 76-211h43V0h-30" id="Q"/><path fill="#333" d="M100-194c62-1 85 37 85 99 1 63-27 99-86 99S16-35 15-95c0-66 28-99 85-99zM99-20c44 1 53-31 53-75 0-43-8-75-51-75s-53 32-53 75 10 74 51 75" id="R"/><g id="f"><use transform="matrix(0.06234567901234565,0,0,0.06234567901234565,0,0)" xlink:href="#y"/><use transform="matrix(0.06234567901234565,0,0,0.06234567901234565,17.456790123456784,0)" xlink:href="#r"/><use transform="matrix(0.06234567901234565,0,0,0.06234567901234565,29.925925925925917,0)" xlink:href="#q"/><use transform="matrix(0.06234567901234565,0,0,0.06234567901234565,36.16049382716048,0)" xlink:href="#L"/><use transform="matrix(0.06234567901234565,0,0,0.06234567901234565,52.308024691358,0)" xlink:href="#o"/><use transform="matrix(0.06234567901234565,0,0,0.06234567901234565,57.233333333333306,0)" xlink:href="#v"/><use transform="matrix(0.06234567901234565,0,0,0.06234567901234565,68.45555555555552,0)" xlink:href="#O"/><use transform="matrix(0.06234567901234565,0,0,0.06234567901234565,79.67777777777773,0)" xlink:href="#F"/><use transform="matrix(0.06234567901234565,0,0,0.06234567901234565,94.6407407407407,0)" xlink:href="#p"/><use transform="matrix(0.06234567901234565,0,0,0.06234567901234565,107.10987654320982,0)" xlink:href="#P"/><use transform="matrix(0.06234567901234565,0,0,0.06234567901234565,119.57901234567895,0)" xlink:href="#Q"/><use transform="matrix(0.06234567901234565,0,0,0.06234567901234565,138.2203703703703,0)" xlink:href="#R"/><use transform="matrix(0.06234567901234565,0,0,0.06234567901234565,150.68950617283943,0)" xlink:href="#s"/><use transform="matrix(0.06234567901234565,0,0,0.06234567901234565,158.10864197530856,0)" xlink:href="#q"/><use transform="matrix(0.06234567901234565,0,0,0.06234567901234565,164.3432098765431,0)" xlink:href="#G"/><use transform="matrix(0.06234567901234565,0,0,0.06234567901234565,175.56543209876534,0)" xlink:href="#z"/><use transform="matrix(0.06234567901234565,0,0,0.06234567901234565,191.71296296296288,0)" xlink:href="#A"/><use transform="matrix(0.06234567901234565,0,0,0.06234567901234565,204.18209876543202,0)" xlink:href="#u"/><use transform="matrix(0.06234567901234565,0,0,0.06234567901234565,216.65123456790116,0)" xlink:href="#s"/><use transform="matrix(0.06234567901234565,0,0,0.06234567901234565,224.07037037037028,0)" xlink:href="#u"/><use transform="matrix(0.06234567901234565,0,0,0.06234567901234565,236.53950617283942,0)" xlink:href="#v"/><use transform="matrix(0.06234567901234565,0,0,0.06234567901234565,247.76172839506165,0)" xlink:href="#q"/><use transform="matrix(0.06234567901234565,0,0,0.06234567901234565,253.9962962962962,0)" xlink:href="#r"/><use transform="matrix(0.06234567901234565,0,0,0.06234567901234565,266.46543209876535,0)" xlink:href="#s"/><use transform="matrix(0.06234567901234565,0,0,0.06234567901234565,273.8845679012345,0)" xlink:href="#B"/><use transform="matrix(0.06234567901234565,0,0,0.06234567901234565,285.10679012345673,0)" xlink:href="#C"/><use transform="matrix(0.06234567901234565,0,0,0.06234567901234565,300.06975308641967,0)" xlink:href="#r"/><use transform="matrix(0.06234567901234565,0,0,0.06234567901234565,312.5388888888888,0)" xlink:href="#s"/><use transform="matrix(0.06234567901234565,0,0,0.06234567901234565,319.95802469135793,0)" xlink:href="#D"/><use transform="matrix(0.06234567901234565,0,0,0.06234567901234565,331.18024691358016,0)" xlink:href="#o"/><use transform="matrix(0.06234567901234565,0,0,0.06234567901234565,336.1055555555555,0)" xlink:href="#v"/><use transform="matrix(0.06234567901234565,0,0,0.06234567901234565,347.3277777777777,0)" xlink:href="#r"/></g><path fill="#333" d="M266 0h-40l-56-210L115 0H75L2-248h35L96-30l15-64 43-154h32l59 218 59-218h35" id="S"/><g id="g"><use transform="matrix(0.06234567901234565,0,0,0.06234567901234565,0,0)" xlink:href="#y"/><use transform="matrix(0.06234567901234565,0,0,0.06234567901234565,17.456790123456784,0)" xlink:href="#r"/><use transform="matrix(0.06234567901234565,0,0,0.06234567901234565,29.925925925925917,0)" xlink:href="#q"/><use transform="matrix(0.06234567901234565,0,0,0.06234567901234565,36.16049382716048,0)" xlink:href="#C"/><use transform="matrix(0.06234567901234565,0,0,0.06234567901234565,51.123456790123434,0)" xlink:href="#q"/><use transform="matrix(0.06234567901234565,0,0,0.06234567901234565,57.358024691358,0)" xlink:href="#u"/><use transform="matrix(0.06234567901234565,0,0,0.06234567901234565,69.82716049382712,0)" xlink:href="#s"/><use transform="matrix(0.06234567901234565,0,0,0.06234567901234565,77.24629629629625,0)" xlink:href="#S"/><use transform="matrix(0.06234567901234565,0,0,0.06234567901234565,97.57098765432093,0)" xlink:href="#u"/><use transform="matrix(0.06234567901234565,0,0,0.06234567901234565,110.04012345679006,0)" xlink:href="#s"/><use transform="matrix(0.06234567901234565,0,0,0.06234567901234565,117.45925925925918,0)" xlink:href="#B"/><use transform="matrix(0.06234567901234565,0,0,0.06234567901234565,128.6814814814814,0)" xlink:href="#z"/><use transform="matrix(0.06234567901234565,0,0,0.06234567901234565,144.82901234567893,0)" xlink:href="#A"/><use transform="matrix(0.06234567901234565,0,0,0.06234567901234565,157.29814814814807,0)" xlink:href="#u"/><use transform="matrix(0.06234567901234565,0,0,0.06234567901234565,169.7672839506172,0)" xlink:href="#s"/><use transform="matrix(0.06234567901234565,0,0,0.06234567901234565,177.18641975308634,0)" xlink:href="#u"/><use transform="matrix(0.06234567901234565,0,0,0.06234567901234565,189.65555555555548,0)" xlink:href="#v"/><use transform="matrix(0.06234567901234565,0,0,0.06234567901234565,200.8777777777777,0)" xlink:href="#q"/><use transform="matrix(0.06234567901234565,0,0,0.06234567901234565,207.11234567901226,0)" xlink:href="#r"/><use transform="matrix(0.06234567901234565,0,0,0.06234567901234565,219.5814814814814,0)" xlink:href="#s"/><use transform="matrix(0.06234567901234565,0,0,0.06234567901234565,227.00061728395053,0)" xlink:href="#B"/><use transform="matrix(0.06234567901234565,0,0,0.06234567901234565,238.22283950617276,0)" xlink:href="#C"/><use transform="matrix(0.06234567901234565,0,0,0.06234567901234565,253.18580246913572,0)" xlink:href="#r"/><use transform="matrix(0.06234567901234565,0,0,0.06234567901234565,265.65493827160486,0)" xlink:href="#s"/><use transform="matrix(0.06234567901234565,0,0,0.06234567901234565,273.074074074074,0)" xlink:href="#D"/><use transform="matrix(0.06234567901234565,0,0,0.06234567901234565,284.29629629629625,0)" xlink:href="#o"/><use transform="matrix(0.06234567901234565,0,0,0.06234567901234565,289.2216049382716,0)" xlink:href="#v"/><use transform="matrix(0.06234567901234565,0,0,0.06234567901234565,300.4438271604938,0)" xlink:href="#r"/></g><path fill="#333" d="M63-220v92h138v28H63V0H30v-248h175v28H63" id="T"/><path fill="#333" d="M177-190C167-65 218 103 67 71c-23-6-38-20-44-43l32-5c15 47 100 32 89-28v-30C133-14 115 1 83 1 29 1 15-40 15-95c0-56 16-97 71-98 29-1 48 16 59 35 1-10 0-23 2-32h30zM94-22c36 0 50-32 50-73 0-42-14-75-50-75-39 0-46 34-46 75s6 73 46 73" id="U"/><g id="h"><use transform="matrix(0.06234567901234565,0,0,0.06234567901234565,0,0)" xlink:href="#y"/><use transform="matrix(0.06234567901234565,0,0,0.06234567901234565,17.456790123456784,0)" xlink:href="#r"/><use transform="matrix(0.06234567901234565,0,0,0.06234567901234565,29.925925925925917,0)" xlink:href="#q"/><use transform="matrix(0.06234567901234565,0,0,0.06234567901234565,36.16049382716048,0)" xlink:href="#C"/><use transform="matrix(0.06234567901234565,0,0,0.06234567901234565,51.123456790123434,0)" xlink:href="#q"/><use transform="matrix(0.06234567901234565,0,0,0.06234567901234565,57.358024691358,0)" xlink:href="#s"/><use transform="matrix(0.06234567901234565,0,0,0.06234567901234565,64.77716049382713,0)" xlink:href="#r"/><use transform="matrix(0.06234567901234565,0,0,0.06234567901234565,77.24629629629625,0)" xlink:href="#r"/><use transform="matrix(0.06234567901234565,0,0,0.06234567901234565,89.71543209876538,0)" xlink:href="#q"/><use transform="matrix(0.06234567901234565,0,0,0.06234567901234565,95.94999999999995,0)" xlink:href="#T"/><use transform="matrix(0.06234567901234565,0,0,0.06234567901234565,109.60370370370364,0)" xlink:href="#o"/><use transform="matrix(0.06234567901234565,0,0,0.06234567901234565,114.52901234567895,0)" xlink:href="#U"/><use transform="matrix(0.06234567901234565,0,0,0.06234567901234565,126.99814814814808,0)" xlink:href="#A"/><use transform="matrix(0.06234567901234565,0,0,0.06234567901234565,139.4672839506172,0)" xlink:href="#q"/><use transform="matrix(0.06234567901234565,0,0,0.06234567901234565,145.70185185185176,0)" xlink:href="#r"/><use transform="matrix(0.06234567901234565,0,0,0.06234567901234565,158.1709876543209,0)" xlink:href="#s"/><use transform="matrix(0.06234567901234565,0,0,0.06234567901234565,165.59012345679002,0)" xlink:href="#z"/><use transform="matrix(0.06234567901234565,0,0,0.06234567901234565,181.73765432098756,0)" xlink:href="#A"/><use transform="matrix(0.06234567901234565,0,0,0.06234567901234565,194.2067901234567,0)" xlink:href="#u"/><use transform="matrix(0.06234567901234565,0,0,0.06234567901234565,206.67592592592584,0)" xlink:href="#s"/><use transform="matrix(0.06234567901234565,0,0,0.06234567901234565,214.09506172839497,0)" xlink:href="#u"/><use transform="matrix(0.06234567901234565,0,0,0.06234567901234565,226.5641975308641,0)" xlink:href="#v"/><use transform="matrix(0.06234567901234565,0,0,0.06234567901234565,237.78641975308634,0)" xlink:href="#q"/><use transform="matrix(0.06234567901234565,0,0,0.06234567901234565,244.0209876543209,0)" xlink:href="#r"/><use transform="matrix(0.06234567901234565,0,0,0.06234567901234565,256.49012345679,0)" xlink:href="#s"/><use transform="matrix(0.06234567901234565,0,0,0.06234567901234565,263.90925925925916,0)" xlink:href="#B"/><use transform="matrix(0.06234567901234565,0,0,0.06234567901234565,275.1314814814814,0)" xlink:href="#C"/><use transform="matrix(0.06234567901234565,0,0,0.06234567901234565,290.0944444444443,0)" xlink:href="#r"/><use transform="matrix(0.06234567901234565,0,0,0.06234567901234565,302.56358024691343,0)" xlink:href="#s"/><use transform="matrix(0.06234567901234565,0,0,0.06234567901234565,309.9827160493826,0)" xlink:href="#D"/><use transform="matrix(0.06234567901234565,0,0,0.06234567901234565,321.2049382716048,0)" xlink:href="#o"/><use transform="matrix(0.06234567901234565,0,0,0.06234567901234565,326.13024691358015,0)" xlink:href="#v"/><use transform="matrix(0.06234567901234565,0,0,0.06234567901234565,337.3524691358024,0)" xlink:href="#r"/></g><path fill="#333" d="M115-194c55 1 70 41 70 98S169 2 115 4C84 4 66-9 55-30l1 105H24l-1-265h31l2 30c10-21 28-34 59-34zm-8 174c40 0 45-34 45-75s-6-73-45-74c-42 0-51 32-51 76 0 43 10 73 51 73" id="V"/><g id="i"><use transform="matrix(0.06234567901234565,0,0,0.06234567901234565,0,0)" xlink:href="#y"/><use transform="matrix(0.06234567901234565,0,0,0.06234567901234565,17.456790123456784,0)" xlink:href="#r"/><use transform="matrix(0.06234567901234565,0,0,0.06234567901234565,29.925925925925917,0)" xlink:href="#q"/><use transform="matrix(0.06234567901234565,0,0,0.06234567901234565,36.16049382716048,0)" xlink:href="#L"/><use transform="matrix(0.06234567901234565,0,0,0.06234567901234565,52.308024691358,0)" xlink:href="#o"/><use transform="matrix(0.06234567901234565,0,0,0.06234567901234565,57.233333333333306,0)" xlink:href="#v"/><use transform="matrix(0.06234567901234565,0,0,0.06234567901234565,68.45555555555552,0)" xlink:href="#O"/><use transform="matrix(0.06234567901234565,0,0,0.06234567901234565,79.67777777777773,0)" xlink:href="#F"/><use transform="matrix(0.06234567901234565,0,0,0.06234567901234565,94.6407407407407,0)" xlink:href="#p"/><use transform="matrix(0.06234567901234565,0,0,0.06234567901234565,107.10987654320982,0)" xlink:href="#P"/><use transform="matrix(0.06234567901234565,0,0,0.06234567901234565,119.57901234567895,0)" xlink:href="#Q"/><use transform="matrix(0.06234567901234565,0,0,0.06234567901234565,138.2203703703703,0)" xlink:href="#R"/><use transform="matrix(0.06234567901234565,0,0,0.06234567901234565,150.68950617283943,0)" xlink:href="#s"/><use transform="matrix(0.06234567901234565,0,0,0.06234567901234565,158.10864197530856,0)" xlink:href="#q"/><use transform="matrix(0.06234567901234565,0,0,0.06234567901234565,164.3432098765431,0)" xlink:href="#G"/><use transform="matrix(0.06234567901234565,0,0,0.06234567901234565,175.56543209876534,0)" xlink:href="#z"/><use transform="matrix(0.06234567901234565,0,0,0.06234567901234565,191.71296296296288,0)" xlink:href="#A"/><use transform="matrix(0.06234567901234565,0,0,0.06234567901234565,204.18209876543202,0)" xlink:href="#u"/><use transform="matrix(0.06234567901234565,0,0,0.06234567901234565,216.65123456790116,0)" xlink:href="#s"/><use transform="matrix(0.06234567901234565,0,0,0.06234567901234565,224.07037037037028,0)" xlink:href="#u"/><use transform="matrix(0.06234567901234565,0,0,0.06234567901234565,236.53950617283942,0)" xlink:href="#v"/><use transform="matrix(0.06234567901234565,0,0,0.06234567901234565,247.76172839506165,0)" xlink:href="#q"/><use transform="matrix(0.06234567901234565,0,0,0.06234567901234565,253.9962962962962,0)" xlink:href="#r"/><use transform="matrix(0.06234567901234565,0,0,0.06234567901234565,266.46543209876535,0)" xlink:href="#s"/><use transform="matrix(0.06234567901234565,0,0,0.06234567901234565,273.8845679012345,0)" xlink:href="#B"/><use transform="matrix(0.06234567901234565,0,0,0.06234567901234565,285.10679012345673,0)" xlink:href="#F"/><use transform="matrix(0.06234567901234565,0,0,0.06234567901234565,300.06975308641967,0)" xlink:href="#P"/><use transform="matrix(0.06234567901234565,0,0,0.06234567901234565,312.5388888888888,0)" xlink:href="#u"/><use transform="matrix(0.06234567901234565,0,0,0.06234567901234565,325.0080246913579,0)" xlink:href="#V"/><use transform="matrix(0.06234567901234565,0,0,0.06234567901234565,337.477160493827,0)" xlink:href="#q"/><use transform="matrix(0.06234567901234565,0,0,0.06234567901234565,343.7117283950616,0)" xlink:href="#r"/><use transform="matrix(0.06234567901234565,0,0,0.06234567901234565,356.1808641975307,0)" xlink:href="#s"/></g><g id="j"><use transform="matrix(0.06172839506172839,0,0,0.06172839506172839,0,0)" xlink:href="#Q"/><use transform="matrix(0.06172839506172839,0,0,0.06172839506172839,18.456790123456788,0)" xlink:href="#u"/><use transform="matrix(0.06172839506172839,0,0,0.06172839506172839,30.80246913580247,0)" xlink:href="#V"/><use transform="matrix(0.06172839506172839,0,0,0.06172839506172839,43.148148148148145,0)" xlink:href="#H"/><use transform="matrix(0.06172839506172839,0,0,0.06172839506172839,50.49382716049382,0)" xlink:href="#P"/><use transform="matrix(0.06172839506172839,0,0,0.06172839506172839,62.8395061728395,0)" xlink:href="#q"/><use transform="matrix(0.06172839506172839,0,0,0.06172839506172839,69.01234567901234,0)" xlink:href="#R"/><use transform="matrix(0.06172839506172839,0,0,0.06172839506172839,81.35802469135803,0)" xlink:href="#I"/><use transform="matrix(0.06172839506172839,0,0,0.06172839506172839,88.70370370370371,0)" xlink:href="#J"/></g><g id="k"><use transform="matrix(0.06234567901234565,0,0,0.06234567901234565,0,0)" xlink:href="#y"/><use transform="matrix(0.06234567901234565,0,0,0.06234567901234565,17.456790123456784,0)" xlink:href="#r"/><use transform="matrix(0.06234567901234565,0,0,0.06234567901234565,29.925925925925917,0)" xlink:href="#q"/><use transform="matrix(0.06234567901234565,0,0,0.06234567901234565,36.16049382716048,0)" xlink:href="#C"/><use transform="matrix(0.06234567901234565,0,0,0.06234567901234565,51.123456790123434,0)" xlink:href="#q"/><use transform="matrix(0.06234567901234565,0,0,0.06234567901234565,57.358024691358,0)" xlink:href="#u"/><use transform="matrix(0.06234567901234565,0,0,0.06234567901234565,69.82716049382712,0)" xlink:href="#s"/><use transform="matrix(0.06234567901234565,0,0,0.06234567901234565,77.24629629629625,0)" xlink:href="#S"/><use transform="matrix(0.06234567901234565,0,0,0.06234567901234565,97.57098765432093,0)" xlink:href="#u"/><use transform="matrix(0.06234567901234565,0,0,0.06234567901234565,110.04012345679006,0)" xlink:href="#s"/><use transform="matrix(0.06234567901234565,0,0,0.06234567901234565,117.45925925925918,0)" xlink:href="#B"/><use transform="matrix(0.06234567901234565,0,0,0.06234567901234565,128.6814814814814,0)" xlink:href="#z"/><use transform="matrix(0.06234567901234565,0,0,0.06234567901234565,144.82901234567893,0)" xlink:href="#A"/><use transform="matrix(0.06234567901234565,0,0,0.06234567901234565,157.29814814814807,0)" xlink:href="#u"/><use transform="matrix(0.06234567901234565,0,0,0.06234567901234565,169.7672839506172,0)" xlink:href="#s"/><use transform="matrix(0.06234567901234565,0,0,0.06234567901234565,177.18641975308634,0)" xlink:href="#u"/><use transform="matrix(0.06234567901234565,0,0,0.06234567901234565,189.65555555555548,0)" xlink:href="#v"/><use transform="matrix(0.06234567901234565,0,0,0.06234567901234565,200.8777777777777,0)" xlink:href="#q"/><use transform="matrix(0.06234567901234565,0,0,0.06234567901234565,207.11234567901226,0)" xlink:href="#r"/><use transform="matrix(0.06234567901234565,0,0,0.06234567901234565,219.5814814814814,0)" xlink:href="#s"/><use transform="matrix(0.06234567901234565,0,0,0.06234567901234565,227.00061728395053,0)" xlink:href="#B"/><use transform="matrix(0.06234567901234565,0,0,0.06234567901234565,238.22283950617276,0)" xlink:href="#F"/><use transform="matrix(0.06234567901234565,0,0,0.06234567901234565,253.18580246913572,0)" xlink:href="#P"/><use transform="matrix(0.06234567901234565,0,0,0.06234567901234565,265.65493827160486,0)" xlink:href="#u"/><use transform="matrix(0.06234567901234565,0,0,0.06234567901234565,278.124074074074,0)" xlink:href="#V"/><use transform="matrix(0.06234567901234565,0,0,0.06234567901234565,290.5932098765431,0)" xlink:href="#q"/><use transform="matrix(0.06234567901234565,0,0,0.06234567901234565,296.82777777777767,0)" xlink:href="#r"/><use transform="matrix(0.06234567901234565,0,0,0.06234567901234565,309.2969135802468,0)" xlink:href="#s"/></g><g id="l"><use transform="matrix(0.06234567901234565,0,0,0.06234567901234565,0,0)" xlink:href="#y"/><use transform="matrix(0.06234567901234565,0,0,0.06234567901234565,17.456790123456784,0)" xlink:href="#r"/><use transform="matrix(0.06234567901234565,0,0,0.06234567901234565,29.925925925925917,0)" xlink:href="#q"/><use transform="matrix(0.06234567901234565,0,0,0.06234567901234565,36.16049382716048,0)" xlink:href="#C"/><use transform="matrix(0.06234567901234565,0,0,0.06234567901234565,51.123456790123434,0)" xlink:href="#q"/><use transform="matrix(0.06234567901234565,0,0,0.06234567901234565,57.358024691358,0)" xlink:href="#s"/><use transform="matrix(0.06234567901234565,0,0,0.06234567901234565,64.77716049382713,0)" xlink:href="#r"/><use transform="matrix(0.06234567901234565,0,0,0.06234567901234565,77.24629629629625,0)" xlink:href="#r"/><use transform="matrix(0.06234567901234565,0,0,0.06234567901234565,89.71543209876538,0)" xlink:href="#q"/><use transform="matrix(0.06234567901234565,0,0,0.06234567901234565,95.94999999999995,0)" xlink:href="#T"/><use transform="matrix(0.06234567901234565,0,0,0.06234567901234565,109.60370370370364,0)" xlink:href="#o"/><use transform="matrix(0.06234567901234565,0,0,0.06234567901234565,114.52901234567895,0)" xlink:href="#U"/><use transform="matrix(0.06234567901234565,0,0,0.06234567901234565,126.99814814814808,0)" xlink:href="#A"/><use transform="matrix(0.06234567901234565,0,0,0.06234567901234565,139.4672839506172,0)" xlink:href="#q"/><use transform="matrix(0.06234567901234565,0,0,0.06234567901234565,145.70185185185176,0)" xlink:href="#r"/><use transform="matrix(0.06234567901234565,0,0,0.06234567901234565,158.1709876543209,0)" xlink:href="#s"/><use transform="matrix(0.06234567901234565,0,0,0.06234567901234565,165.59012345679002,0)" xlink:href="#z"/><use transform="matrix(0.06234567901234565,0,0,0.06234567901234565,181.73765432098756,0)" xlink:href="#A"/><use transform="matrix(0.06234567901234565,0,0,0.06234567901234565,194.2067901234567,0)" xlink:href="#u"/><use transform="matrix(0.06234567901234565,0,0,0.06234567901234565,206.67592592592584,0)" xlink:href="#s"/><use transform="matrix(0.06234567901234565,0,0,0.06234567901234565,214.09506172839497,0)" xlink:href="#u"/><use transform="matrix(0.06234567901234565,0,0,0.06234567901234565,226.5641975308641,0)" xlink:href="#v"/><use transform="matrix(0.06234567901234565,0,0,0.06234567901234565,237.78641975308634,0)" xlink:href="#q"/><use transform="matrix(0.06234567901234565,0,0,0.06234567901234565,244.0209876543209,0)" xlink:href="#r"/><use transform="matrix(0.06234567901234565,0,0,0.06234567901234565,256.49012345679,0)" xlink:href="#s"/><use transform="matrix(0.06234567901234565,0,0,0.06234567901234565,263.90925925925916,0)" xlink:href="#B"/><use transform="matrix(0.06234567901234565,0,0,0.06234567901234565,275.1314814814814,0)" xlink:href="#F"/><use transform="matrix(0.06234567901234565,0,0,0.06234567901234565,290.0944444444443,0)" xlink:href="#P"/><use transform="matrix(0.06234567901234565,0,0,0.06234567901234565,302.56358024691343,0)" xlink:href="#u"/><use transform="matrix(0.06234567901234565,0,0,0.06234567901234565,315.03271604938254,0)" xlink:href="#V"/><use transform="matrix(0.06234567901234565,0,0,0.06234567901234565,327.50185185185165,0)" xlink:href="#q"/><use transform="matrix(0.06234567901234565,0,0,0.06234567901234565,333.73641975308624,0)" xlink:href="#r"/><use transform="matrix(0.06234567901234565,0,0,0.06234567901234565,346.20555555555535,0)" xlink:href="#s"/></g><path fill="#333" d="M26 75v-336h71v23H56V52h41v23H26" id="W"/><path fill="#333" d="M3 75V52h41v-290H3v-23h71V75H3" id="X"/><g id="m"><use transform="matrix(0.06172839506172839,0,0,0.06172839506172839,0,0)" xlink:href="#Q"/><use transform="matrix(0.06172839506172839,0,0,0.06172839506172839,18.456790123456788,0)" xlink:href="#u"/><use transform="matrix(0.06172839506172839,0,0,0.06172839506172839,30.80246913580247,0)" xlink:href="#V"/><use transform="matrix(0.06172839506172839,0,0,0.06172839506172839,43.148148148148145,0)" xlink:href="#H"/><use transform="matrix(0.06172839506172839,0,0,0.06172839506172839,50.49382716049382,0)" xlink:href="#B"/><use transform="matrix(0.06172839506172839,0,0,0.06172839506172839,61.60493827160494,0)" xlink:href="#q"/><use transform="matrix(0.06172839506172839,0,0,0.06172839506172839,67.77777777777777,0)" xlink:href="#s"/><use transform="matrix(0.06172839506172839,0,0,0.06172839506172839,75.12345679012346,0)" xlink:href="#o"/><use transform="matrix(0.06172839506172839,0,0,0.06172839506172839,80,0)" xlink:href="#p"/><use transform="matrix(0.06172839506172839,0,0,0.06172839506172839,92.34567901234568,0)" xlink:href="#U"/><use transform="matrix(0.06172839506172839,0,0,0.06172839506172839,104.69135802469137,0)" xlink:href="#W"/><use transform="matrix(0.06172839506172839,0,0,0.06172839506172839,110.8641975308642,0)" xlink:href="#X"/><use transform="matrix(0.06172839506172839,0,0,0.06172839506172839,117.03703703703704,0)" xlink:href="#I"/><use transform="matrix(0.06172839506172839,0,0,0.06172839506172839,124.38271604938272,0)" xlink:href="#J"/></g></defs></g></svg>